<svg width="114" height="24" viewBox="0 0 114 24" fill="none" xmlns="http://www.w3.org/2000/svg">
<path d="M4.03201 23.392H4.76837e-06V-1.90735e-06H4.064L15.04 16.576V-1.90735e-06H19.072V23.392H15.04L4.03201 6.816V23.392ZM24.09 14.848V-1.90735e-06H28.186V14.592C28.186 17.952 30.01 19.808 33.338 19.808C36.666 19.808 38.522 17.92 38.522 14.592V-1.90735e-06H42.618V14.848C42.618 20.32 39.034 23.776 33.338 23.776C27.674 23.776 24.09 20.352 24.09 14.848ZM52.5203 23.392L45.5443 -1.90735e-06H49.8003L53.5123 12.352C53.8643 13.632 54.2163 14.944 54.5683 16.992C54.9523 14.912 55.3043 13.696 55.7203 12.352L59.4003 -1.90735e-06H63.9123L67.5283 12.352C67.9123 13.664 68.2643 15.008 68.6483 16.992C69.0963 14.816 69.4163 13.568 69.7683 12.384L73.5443 -1.90735e-06H77.7043L70.6003 23.392H66.6323L61.6403 6.368L56.5523 23.392H52.5203ZM80.266 23.392H76.01L84.458 -1.90735e-06H88.65L97.098 23.392H92.778L90.89 17.984H82.154L80.266 23.392ZM86.026 6.976L83.37 14.528H89.706L87.018 6.976C86.826 6.368 86.602 5.664 86.538 5.184C86.442 5.632 86.25 6.336 86.026 6.976ZM95.8895 3.776V-1.90735e-06H113.682V3.776H106.834V23.392H102.738V3.776H95.8895Z" fill="white"/>
</svg>
