<svg width="1877" height="1712" viewBox="0 0 1877 1712" fill="none" xmlns="http://www.w3.org/2000/svg">
<g filter="url(#filter0_f_148_1362)">
<ellipse cx="680.858" cy="621.544" rx="409.624" ry="341.055" transform="rotate(165 680.858 621.544)" fill="url(#paint0_linear_148_1362)"/>
</g>
<g filter="url(#filter1_f_148_1362)">
<ellipse cx="865.502" cy="459.457" rx="361.984" ry="301.401" transform="rotate(165 865.502 459.457)" fill="black"/>
</g>
<g opacity="0.6" clip-path="url(#clip0_148_1362)">
<g opacity="0.7">
<path opacity="0.11" d="M501.759 1220.56C502.401 1220.55 502.913 1220.02 502.903 1219.38C502.892 1218.74 502.363 1218.22 501.721 1218.23C501.079 1218.24 500.567 1218.77 500.577 1219.42C500.587 1220.06 501.116 1220.57 501.759 1220.56Z" fill="white"/>
<path d="M505.63 1226.89C506.112 1226.88 506.496 1226.48 506.488 1226C506.48 1225.52 506.084 1225.14 505.602 1225.14C505.12 1225.15 504.736 1225.55 504.744 1226.03C504.752 1226.51 505.149 1226.9 505.63 1226.89Z" fill="white"/>
<path d="M524.618 1214.38C525.1 1214.37 525.484 1213.97 525.476 1213.49C525.468 1213.01 525.072 1212.63 524.59 1212.63C524.109 1212.64 523.725 1213.04 523.733 1213.52C523.74 1214 524.137 1214.38 524.618 1214.38Z" fill="white"/>
<path d="M475.201 1214.01C475.682 1214 476.066 1213.61 476.058 1213.12C476.051 1212.64 475.654 1212.26 475.172 1212.27C474.691 1212.27 474.307 1212.67 474.315 1213.15C474.322 1213.63 474.719 1214.02 475.201 1214.01Z" fill="white"/>
<path opacity="0.11" d="M446.653 1228.42C447.295 1228.41 447.808 1227.88 447.797 1227.24C447.787 1226.6 447.258 1226.09 446.616 1226.1C445.973 1226.11 445.461 1226.64 445.472 1227.28C445.482 1227.92 446.011 1228.43 446.653 1228.42Z" fill="white"/>
<path d="M435.408 1215.82C435.729 1215.81 435.985 1215.55 435.979 1215.23C435.974 1214.91 435.71 1214.65 435.389 1214.65C435.068 1214.66 434.812 1214.92 434.818 1215.24C434.823 1215.57 435.087 1215.82 435.408 1215.82Z" fill="white"/>
<path d="M500.373 1243.25C500.694 1243.24 500.95 1242.98 500.944 1242.66C500.939 1242.34 500.675 1242.08 500.354 1242.09C500.033 1242.09 499.777 1242.36 499.783 1242.68C499.788 1243 500.052 1243.26 500.373 1243.25Z" fill="white"/>
<path d="M627.076 1241.21C627.397 1241.2 627.653 1240.94 627.647 1240.61C627.642 1240.29 627.378 1240.04 627.057 1240.04C626.736 1240.05 626.48 1240.31 626.486 1240.63C626.491 1240.95 626.755 1241.21 627.076 1241.21Z" fill="white"/>
<path d="M689.912 1208.8C690.233 1208.79 690.489 1208.53 690.483 1208.2C690.478 1207.88 690.214 1207.63 689.893 1207.63C689.572 1207.64 689.316 1207.9 689.322 1208.22C689.327 1208.54 689.591 1208.8 689.912 1208.8Z" fill="white"/>
<path d="M713.267 1250.86C713.588 1250.85 713.844 1250.59 713.839 1250.27C713.834 1249.95 713.569 1249.69 713.249 1249.69C712.928 1249.7 712.672 1249.96 712.677 1250.29C712.682 1250.61 712.947 1250.86 713.267 1250.86Z" fill="white"/>
<path d="M306.611 1231.85C306.932 1231.84 307.188 1231.58 307.183 1231.26C307.177 1230.94 306.913 1230.68 306.592 1230.69C306.271 1230.69 306.016 1230.96 306.021 1231.28C306.026 1231.6 306.29 1231.85 306.611 1231.85Z" fill="white"/>
<path opacity="0.11" d="M297.388 1200.61C297.709 1200.6 297.965 1200.34 297.96 1200.02C297.955 1199.7 297.69 1199.44 297.37 1199.45C297.049 1199.45 296.793 1199.72 296.798 1200.04C296.803 1200.36 297.068 1200.61 297.388 1200.61Z" fill="white"/>
<path opacity="0.11" d="M272.619 1214.38C272.94 1214.37 273.196 1214.11 273.19 1213.79C273.185 1213.47 272.921 1213.21 272.6 1213.22C272.279 1213.22 272.023 1213.49 272.029 1213.81C272.034 1214.13 272.298 1214.38 272.619 1214.38Z" fill="white"/>
<path opacity="0.11" d="M292.357 1248.94C292.678 1248.93 292.934 1248.67 292.929 1248.35C292.924 1248.03 292.659 1247.77 292.338 1247.78C292.018 1247.78 291.762 1248.05 291.767 1248.37C291.772 1248.69 292.036 1248.94 292.357 1248.94Z" fill="white"/>
<path opacity="0.11" d="M430.299 1223.45C430.619 1223.45 430.875 1223.18 430.87 1222.86C430.865 1222.54 430.601 1222.29 430.28 1222.29C429.959 1222.3 429.703 1222.56 429.708 1222.88C429.713 1223.2 429.978 1223.46 430.299 1223.45Z" fill="white"/>
<path opacity="0.11" d="M499.556 1264.2C499.877 1264.19 500.133 1263.93 500.128 1263.61C500.123 1263.28 499.858 1263.03 499.538 1263.03C499.217 1263.04 498.961 1263.3 498.966 1263.62C498.971 1263.94 499.236 1264.2 499.556 1264.2Z" fill="white"/>
<path opacity="0.11" d="M611.045 1256.58C611.366 1256.57 611.621 1256.31 611.616 1255.99C611.611 1255.67 611.347 1255.41 611.026 1255.41C610.705 1255.42 610.449 1255.68 610.454 1256C610.46 1256.33 610.724 1256.58 611.045 1256.58Z" fill="white"/>
<path opacity="0.3" d="M333.111 1216.89C333.432 1216.88 333.688 1216.62 333.683 1216.3C333.677 1215.98 333.413 1215.72 333.092 1215.73C332.771 1215.73 332.516 1216 332.521 1216.32C332.526 1216.64 332.79 1216.89 333.111 1216.89Z" fill="white"/>
<path d="M466.271 1183.34C466.592 1183.34 466.848 1183.07 466.843 1182.75C466.838 1182.43 466.573 1182.18 466.252 1182.18C465.932 1182.19 465.676 1182.45 465.681 1182.77C465.686 1183.09 465.95 1183.35 466.271 1183.34Z" fill="white"/>
<path d="M555.752 1180.74C556.073 1180.73 556.328 1180.47 556.323 1180.15C556.318 1179.83 556.054 1179.57 555.733 1179.57C555.412 1179.58 555.156 1179.84 555.161 1180.16C555.167 1180.49 555.431 1180.74 555.752 1180.74Z" fill="white"/>
<path d="M427.615 1237.45C427.936 1237.45 428.192 1237.18 428.187 1236.86C428.181 1236.54 427.917 1236.28 427.596 1236.29C427.275 1236.29 427.02 1236.56 427.025 1236.88C427.03 1237.2 427.294 1237.46 427.615 1237.45Z" fill="white"/>
<path opacity="0.3" d="M386.935 1238.11C387.256 1238.1 387.512 1237.84 387.507 1237.52C387.502 1237.2 387.237 1236.94 386.917 1236.95C386.596 1236.95 386.34 1237.22 386.345 1237.54C386.35 1237.86 386.614 1238.11 386.935 1238.11Z" fill="white"/>
<path opacity="0.11" d="M338.701 1202.85C339.022 1202.84 339.278 1202.58 339.272 1202.26C339.267 1201.94 339.003 1201.68 338.682 1201.69C338.361 1201.69 338.105 1201.96 338.111 1202.28C338.116 1202.6 338.38 1202.85 338.701 1202.85Z" fill="white"/>
<path opacity="0.3" d="M476.963 1197.13C477.283 1197.12 477.539 1196.86 477.534 1196.54C477.529 1196.21 477.265 1195.96 476.944 1195.96C476.623 1195.97 476.367 1196.23 476.372 1196.55C476.378 1196.88 476.642 1197.13 476.963 1197.13Z" fill="white"/>
<path opacity="0.3" d="M437.681 1248.34C438.002 1248.33 438.258 1248.07 438.253 1247.74C438.248 1247.42 437.983 1247.17 437.663 1247.17C437.342 1247.18 437.086 1247.44 437.091 1247.76C437.096 1248.08 437.361 1248.34 437.681 1248.34Z" fill="white"/>
<path opacity="0.3" d="M367.451 1255.28C367.772 1255.28 368.028 1255.01 368.022 1254.69C368.017 1254.37 367.753 1254.11 367.432 1254.12C367.111 1254.12 366.855 1254.39 366.861 1254.71C366.866 1255.03 367.13 1255.29 367.451 1255.28Z" fill="white"/>
<path opacity="0.3" d="M349.967 1216.62C350.287 1216.61 350.543 1216.35 350.538 1216.03C350.533 1215.71 350.269 1215.45 349.948 1215.46C349.627 1215.46 349.371 1215.73 349.376 1216.05C349.381 1216.37 349.646 1216.62 349.967 1216.62Z" fill="white"/>
<path opacity="0.3" d="M711.424 1209.03C711.744 1209.03 712 1208.76 711.995 1208.44C711.99 1208.12 711.726 1207.86 711.405 1207.87C711.084 1207.87 710.828 1208.14 710.833 1208.46C710.838 1208.78 711.103 1209.04 711.424 1209.03Z" fill="white"/>
<path opacity="0.11" d="M617.47 1186.71C617.791 1186.71 618.047 1186.44 618.042 1186.12C618.037 1185.8 617.773 1185.55 617.452 1185.55C617.131 1185.56 616.875 1185.82 616.88 1186.14C616.885 1186.46 617.15 1186.72 617.47 1186.71Z" fill="white"/>
<path opacity="0.11" d="M696.138 1234.27C696.459 1234.27 696.715 1234 696.71 1233.68C696.705 1233.36 696.44 1233.11 696.12 1233.11C695.799 1233.12 695.543 1233.38 695.548 1233.7C695.553 1234.02 695.818 1234.28 696.138 1234.27Z" fill="white"/>
<path opacity="0.3" d="M549.184 1241.88C549.827 1241.87 550.339 1241.34 550.328 1240.7C550.318 1240.06 549.789 1239.54 549.147 1239.55C548.505 1239.56 547.992 1240.09 548.003 1240.74C548.013 1241.38 548.542 1241.89 549.184 1241.88Z" fill="white"/>
<path opacity="0.11" d="M583.192 1223.89C583.834 1223.88 584.347 1223.35 584.336 1222.71C584.326 1222.07 583.797 1221.56 583.155 1221.57C582.512 1221.58 582 1222.11 582.011 1222.75C582.021 1223.39 582.55 1223.9 583.192 1223.89Z" fill="white"/>
<path d="M582.575 1203.56C583.057 1203.55 583.441 1203.15 583.433 1202.67C583.425 1202.19 583.029 1201.81 582.547 1201.82C582.066 1201.82 581.682 1202.22 581.69 1202.7C581.697 1203.18 582.094 1203.57 582.575 1203.56Z" fill="white"/>
<path d="M543.466 1265.23C543.948 1265.22 544.332 1264.83 544.324 1264.34C544.316 1263.86 543.919 1263.48 543.438 1263.49C542.956 1263.49 542.572 1263.89 542.58 1264.37C542.588 1264.85 542.985 1265.24 543.466 1265.23Z" fill="white"/>
<path d="M736.599 1273.73C737.08 1273.73 737.464 1273.33 737.457 1272.85C737.449 1272.37 737.052 1271.98 736.571 1271.99C736.089 1272 735.705 1272.39 735.713 1272.88C735.721 1273.36 736.117 1273.74 736.599 1273.73Z" fill="white"/>
<path d="M359.259 1269.95C359.741 1269.94 360.125 1269.54 360.117 1269.06C360.109 1268.58 359.712 1268.2 359.231 1268.2C358.749 1268.21 358.365 1268.61 358.373 1269.09C358.381 1269.57 358.778 1269.96 359.259 1269.95Z" fill="white"/>
<path d="M281.751 1257.83C282.233 1257.82 282.617 1257.43 282.609 1256.95C282.601 1256.46 282.205 1256.08 281.723 1256.09C281.242 1256.1 280.858 1256.49 280.865 1256.97C280.873 1257.46 281.27 1257.84 281.751 1257.83Z" fill="white"/>
<path d="M271.493 1234.74C271.975 1234.74 272.359 1234.34 272.351 1233.86C272.343 1233.38 271.947 1232.99 271.465 1233C270.984 1233.01 270.6 1233.41 270.608 1233.89C270.615 1234.37 271.012 1234.75 271.493 1234.74Z" fill="white"/>
<path d="M554.872 1215.63C555.354 1215.63 555.738 1215.23 555.73 1214.75C555.722 1214.27 555.326 1213.88 554.844 1213.89C554.363 1213.9 553.979 1214.29 553.986 1214.78C553.994 1215.26 554.391 1215.64 554.872 1215.63Z" fill="white"/>
<path d="M454.439 1260.27C454.92 1260.27 455.304 1259.87 455.297 1259.39C455.289 1258.91 454.892 1258.52 454.411 1258.53C453.929 1258.54 453.545 1258.93 453.553 1259.42C453.561 1259.9 453.957 1260.28 454.439 1260.27Z" fill="white"/>
<path d="M601.298 1282.9C601.78 1282.89 602.164 1282.49 602.156 1282.01C602.148 1281.53 601.752 1281.15 601.27 1281.15C600.788 1281.16 600.404 1281.56 600.412 1282.04C600.42 1282.52 600.817 1282.91 601.298 1282.9Z" fill="white"/>
<path d="M754.669 1240.89C755.151 1240.88 755.535 1240.48 755.527 1240C755.519 1239.52 755.123 1239.14 754.641 1239.14C754.16 1239.15 753.776 1239.55 753.783 1240.03C753.791 1240.51 754.188 1240.89 754.669 1240.89Z" fill="white"/>
<path d="M768.099 1208.7C768.58 1208.69 768.964 1208.29 768.957 1207.81C768.949 1207.33 768.552 1206.94 768.071 1206.95C767.589 1206.96 767.205 1207.36 767.213 1207.84C767.221 1208.32 767.617 1208.7 768.099 1208.7Z" fill="white"/>
<path opacity="0.3" d="M630.532 1203.36C631.174 1203.35 631.687 1202.82 631.676 1202.18C631.666 1201.54 631.137 1201.03 630.495 1201.04C629.852 1201.05 629.34 1201.58 629.351 1202.22C629.361 1202.86 629.89 1203.37 630.532 1203.36Z" fill="white"/>
<path d="M629.864 1162.1C630.506 1162.09 631.019 1161.56 631.008 1160.92C630.998 1160.28 630.469 1159.76 629.827 1159.78C629.184 1159.79 628.672 1160.31 628.683 1160.96C628.693 1161.6 629.222 1162.11 629.864 1162.1Z" fill="white"/>
<path d="M660.673 1215.67C661.155 1215.66 661.539 1215.26 661.531 1214.78C661.523 1214.3 661.126 1213.91 660.645 1213.92C660.163 1213.93 659.779 1214.33 659.787 1214.81C659.795 1215.29 660.192 1215.67 660.673 1215.67Z" fill="white"/>
<path opacity="0.3" d="M688.493 1192.55C689.135 1192.54 689.647 1192.01 689.637 1191.36C689.627 1190.72 689.098 1190.21 688.455 1190.22C687.813 1190.23 687.301 1190.76 687.311 1191.4C687.322 1192.04 687.851 1192.56 688.493 1192.55Z" fill="white"/>
<path opacity="0.3" d="M746.696 1232.88C747.338 1232.87 747.851 1232.34 747.84 1231.7C747.83 1231.06 747.301 1230.54 746.659 1230.55C746.016 1230.56 745.504 1231.09 745.515 1231.74C745.525 1232.38 746.054 1232.89 746.696 1232.88Z" fill="white"/>
<path opacity="0.3" d="M678.712 1235.14C679.354 1235.13 679.866 1234.6 679.856 1233.96C679.845 1233.31 679.316 1232.8 678.674 1232.81C678.032 1232.82 677.52 1233.35 677.53 1233.99C677.541 1234.64 678.07 1235.15 678.712 1235.14Z" fill="white"/>
<path opacity="0.3" d="M345.278 1250.41C345.92 1250.4 346.433 1249.87 346.422 1249.23C346.412 1248.58 345.883 1248.07 345.241 1248.08C344.598 1248.09 344.086 1248.62 344.097 1249.26C344.107 1249.91 344.636 1250.42 345.278 1250.41Z" fill="white"/>
<path opacity="0.3" d="M297.688 1219.2C298.331 1219.19 298.843 1218.66 298.832 1218.02C298.822 1217.38 298.293 1216.87 297.651 1216.88C297.009 1216.89 296.496 1217.42 296.507 1218.06C296.517 1218.7 297.046 1219.21 297.688 1219.2Z" fill="white"/>
<path opacity="0.11" d="M722.583 1215.83C723.225 1215.82 723.737 1215.29 723.727 1214.65C723.717 1214 723.188 1213.49 722.545 1213.5C721.903 1213.51 721.391 1214.04 721.401 1214.68C721.412 1215.33 721.941 1215.84 722.583 1215.83Z" fill="white"/>
<path opacity="0.3" d="M380.474 1198.1C381.116 1198.09 381.628 1197.56 381.618 1196.92C381.607 1196.28 381.078 1195.77 380.436 1195.78C379.794 1195.79 379.282 1196.32 379.292 1196.96C379.302 1197.6 379.831 1198.11 380.474 1198.1Z" fill="white"/>
<path opacity="0.11" d="M364.595 1186.73C365.237 1186.72 365.749 1186.19 365.739 1185.55C365.728 1184.91 365.199 1184.4 364.557 1184.41C363.915 1184.42 363.403 1184.95 363.413 1185.59C363.423 1186.23 363.952 1186.74 364.595 1186.73Z" fill="white"/>
<path opacity="0.3" d="M360.548 1224C361.19 1223.99 361.702 1223.46 361.692 1222.82C361.681 1222.18 361.152 1221.67 360.51 1221.68C359.868 1221.69 359.356 1222.22 359.366 1222.86C359.377 1223.5 359.906 1224.01 360.548 1224Z" fill="white"/>
<path d="M396.861 1222.84C397.342 1222.83 397.726 1222.43 397.718 1221.95C397.711 1221.47 397.314 1221.08 396.832 1221.09C396.351 1221.1 395.967 1221.5 395.975 1221.98C395.983 1222.46 396.379 1222.84 396.861 1222.84Z" fill="white"/>
<path opacity="0.11" d="M699.868 1039.83C700.51 1039.82 701.022 1039.29 701.012 1038.65C701.002 1038.01 700.473 1037.5 699.83 1037.51C699.188 1037.52 698.676 1038.05 698.686 1038.69C698.697 1039.33 699.226 1039.84 699.868 1039.83Z" fill="white"/>
<path d="M703.747 1046.16C704.229 1046.16 704.613 1045.76 704.605 1045.28C704.597 1044.8 704.201 1044.41 703.719 1044.42C703.238 1044.43 702.854 1044.82 702.861 1045.31C702.869 1045.79 703.266 1046.17 703.747 1046.16Z" fill="white"/>
<path d="M722.736 1033.65C723.217 1033.64 723.601 1033.25 723.593 1032.76C723.586 1032.28 723.189 1031.9 722.708 1031.91C722.226 1031.91 721.842 1032.31 721.85 1032.79C721.858 1033.27 722.254 1033.66 722.736 1033.65Z" fill="white"/>
<path d="M673.314 1033.28C673.795 1033.28 674.179 1032.88 674.172 1032.4C674.164 1031.92 673.767 1031.53 673.286 1031.54C672.804 1031.55 672.42 1031.94 672.428 1032.43C672.436 1032.91 672.832 1033.29 673.314 1033.28Z" fill="white"/>
<path opacity="0.11" d="M644.767 1047.7C645.409 1047.69 645.921 1047.16 645.911 1046.52C645.9 1045.87 645.371 1045.36 644.729 1045.37C644.087 1045.38 643.575 1045.91 643.585 1046.55C643.595 1047.2 644.124 1047.71 644.767 1047.7Z" fill="white"/>
<path d="M633.521 1035.09C633.842 1035.09 634.098 1034.82 634.093 1034.5C634.088 1034.18 633.823 1033.92 633.502 1033.93C633.182 1033.93 632.926 1034.2 632.931 1034.52C632.936 1034.84 633.2 1035.1 633.521 1035.09Z" fill="white"/>
<path d="M698.49 1062.52C698.811 1062.52 699.067 1062.26 699.062 1061.93C699.056 1061.61 698.792 1061.36 698.471 1061.36C698.15 1061.37 697.895 1061.63 697.9 1061.95C697.905 1062.27 698.169 1062.53 698.49 1062.52Z" fill="white"/>
<path d="M825.189 1060.48C825.51 1060.47 825.766 1060.21 825.761 1059.89C825.756 1059.57 825.491 1059.31 825.17 1059.32C824.85 1059.32 824.594 1059.59 824.599 1059.91C824.604 1060.23 824.868 1060.49 825.189 1060.48Z" fill="white"/>
<path d="M888.026 1028.07C888.347 1028.06 888.603 1027.8 888.598 1027.48C888.592 1027.16 888.328 1026.9 888.007 1026.91C887.687 1026.91 887.431 1027.18 887.436 1027.5C887.441 1027.82 887.705 1028.08 888.026 1028.07Z" fill="white"/>
<path d="M911.382 1070.13C911.702 1070.13 911.958 1069.86 911.953 1069.54C911.948 1069.22 911.684 1068.96 911.363 1068.97C911.042 1068.97 910.786 1069.24 910.791 1069.56C910.796 1069.88 911.061 1070.14 911.382 1070.13Z" fill="white"/>
<path d="M504.724 1051.12C505.045 1051.12 505.301 1050.85 505.296 1050.53C505.291 1050.21 505.026 1049.96 504.706 1049.96C504.385 1049.97 504.129 1050.23 504.134 1050.55C504.139 1050.87 504.404 1051.13 504.724 1051.12Z" fill="white"/>
<path opacity="0.11" d="M495.502 1019.88C495.823 1019.88 496.078 1019.61 496.073 1019.29C496.068 1018.97 495.804 1018.71 495.483 1018.72C495.162 1018.72 494.906 1018.99 494.911 1019.31C494.917 1019.63 495.181 1019.89 495.502 1019.88Z" fill="white"/>
<path opacity="0.11" d="M470.732 1033.65C471.053 1033.65 471.309 1033.38 471.304 1033.06C471.299 1032.74 471.034 1032.49 470.713 1032.49C470.393 1032.5 470.137 1032.76 470.142 1033.08C470.147 1033.4 470.411 1033.66 470.732 1033.65Z" fill="white"/>
<path opacity="0.11" d="M490.47 1068.21C490.791 1068.21 491.047 1067.94 491.042 1067.62C491.037 1067.3 490.773 1067.05 490.452 1067.05C490.131 1067.06 489.875 1067.32 489.88 1067.64C489.885 1067.96 490.15 1068.22 490.47 1068.21Z" fill="white"/>
<path opacity="0.11" d="M628.412 1042.73C628.733 1042.72 628.989 1042.46 628.983 1042.14C628.978 1041.82 628.714 1041.56 628.393 1041.57C628.072 1041.57 627.816 1041.83 627.822 1042.16C627.827 1042.48 628.091 1042.73 628.412 1042.73Z" fill="white"/>
<path opacity="0.11" d="M697.67 1083.47C697.991 1083.46 698.246 1083.2 698.241 1082.88C698.236 1082.56 697.972 1082.3 697.651 1082.31C697.33 1082.31 697.074 1082.58 697.079 1082.9C697.085 1083.22 697.349 1083.47 697.67 1083.47Z" fill="white"/>
<path opacity="0.11" d="M809.158 1075.85C809.479 1075.85 809.735 1075.58 809.729 1075.26C809.724 1074.94 809.46 1074.68 809.139 1074.69C808.818 1074.69 808.562 1074.96 808.568 1075.28C808.573 1075.6 808.837 1075.86 809.158 1075.85Z" fill="white"/>
<path opacity="0.3" d="M531.224 1036.16C531.545 1036.16 531.801 1035.89 531.796 1035.57C531.791 1035.25 531.526 1034.99 531.206 1035C530.885 1035.01 530.629 1035.27 530.634 1035.59C530.639 1035.91 530.904 1036.17 531.224 1036.16Z" fill="white"/>
<path d="M664.385 1002.62C664.705 1002.61 664.961 1002.35 664.956 1002.03C664.951 1001.71 664.687 1001.45 664.366 1001.46C664.045 1001.46 663.789 1001.72 663.794 1002.05C663.799 1002.37 664.064 1002.62 664.385 1002.62Z" fill="white"/>
<path d="M753.869 1000.01C754.19 1000 754.446 999.739 754.44 999.419C754.435 999.098 754.171 998.842 753.85 998.847C753.529 998.852 753.273 999.117 753.279 999.437C753.284 999.758 753.548 1000.01 753.869 1000.01Z" fill="white"/>
<path d="M625.732 1056.72C626.053 1056.72 626.309 1056.46 626.304 1056.13C626.299 1055.81 626.034 1055.56 625.713 1055.56C625.393 1055.57 625.137 1055.83 625.142 1056.15C625.147 1056.47 625.411 1056.73 625.732 1056.72Z" fill="white"/>
<path opacity="0.3" d="M585.049 1057.38C585.369 1057.38 585.625 1057.11 585.62 1056.79C585.615 1056.47 585.351 1056.22 585.03 1056.22C584.709 1056.23 584.453 1056.49 584.458 1056.81C584.464 1057.13 584.728 1057.39 585.049 1057.38Z" fill="white"/>
<path opacity="0.11" d="M536.814 1022.12C537.135 1022.12 537.391 1021.85 537.386 1021.53C537.381 1021.21 537.116 1020.95 536.795 1020.96C536.475 1020.97 536.219 1021.23 536.224 1021.55C536.229 1021.87 536.493 1022.13 536.814 1022.12Z" fill="white"/>
<path opacity="0.3" d="M675.076 1016.4C675.397 1016.39 675.653 1016.13 675.647 1015.81C675.642 1015.49 675.378 1015.23 675.057 1015.24C674.736 1015.24 674.48 1015.51 674.486 1015.83C674.491 1016.15 674.755 1016.4 675.076 1016.4Z" fill="white"/>
<path opacity="0.3" d="M635.795 1067.61C636.116 1067.6 636.371 1067.34 636.366 1067.02C636.361 1066.7 636.097 1066.44 635.776 1066.45C635.455 1066.45 635.199 1066.72 635.204 1067.04C635.21 1067.36 635.474 1067.61 635.795 1067.61Z" fill="white"/>
<path opacity="0.3" d="M565.564 1074.56C565.885 1074.55 566.141 1074.29 566.136 1073.97C566.131 1073.64 565.866 1073.39 565.545 1073.39C565.225 1073.4 564.969 1073.66 564.974 1073.98C564.979 1074.31 565.243 1074.56 565.564 1074.56Z" fill="white"/>
<path opacity="0.3" d="M548.084 1035.89C548.405 1035.89 548.66 1035.62 548.655 1035.3C548.65 1034.98 548.386 1034.73 548.065 1034.73C547.744 1034.74 547.488 1035 547.493 1035.32C547.499 1035.64 547.763 1035.9 548.084 1035.89Z" fill="white"/>
<path opacity="0.3" d="M909.538 1028.3C909.859 1028.3 910.115 1028.04 910.109 1027.71C910.104 1027.39 909.84 1027.14 909.519 1027.14C909.198 1027.15 908.942 1027.41 908.948 1027.73C908.953 1028.05 909.217 1028.31 909.538 1028.3Z" fill="white"/>
<path opacity="0.11" d="M815.584 1005.99C815.905 1005.98 816.16 1005.72 816.155 1005.4C816.15 1005.08 815.886 1004.82 815.565 1004.83C815.244 1004.83 814.988 1005.1 814.993 1005.42C814.999 1005.74 815.263 1005.99 815.584 1005.99Z" fill="white"/>
<path opacity="0.11" d="M894.253 1053.55C894.574 1053.54 894.829 1053.28 894.824 1052.96C894.819 1052.64 894.555 1052.38 894.234 1052.38C893.913 1052.39 893.657 1052.65 893.662 1052.98C893.668 1053.3 893.932 1053.55 894.253 1053.55Z" fill="white"/>
<path opacity="0.3" d="M747.298 1061.16C747.94 1061.15 748.452 1060.62 748.442 1059.97C748.431 1059.33 747.902 1058.82 747.26 1058.83C746.618 1058.84 746.106 1059.37 746.116 1060.01C746.127 1060.65 746.656 1061.17 747.298 1061.16Z" fill="white"/>
<path opacity="0.11" d="M781.306 1043.17C781.948 1043.16 782.46 1042.63 782.45 1041.98C782.439 1041.34 781.91 1040.83 781.268 1040.84C780.626 1040.85 780.114 1041.38 780.124 1042.02C780.134 1042.66 780.663 1043.18 781.306 1043.17Z" fill="white"/>
<path d="M780.689 1022.83C781.17 1022.82 781.554 1022.43 781.547 1021.95C781.539 1021.46 781.142 1021.08 780.661 1021.09C780.179 1021.1 779.795 1021.49 779.803 1021.97C779.811 1022.46 780.207 1022.84 780.689 1022.83Z" fill="white"/>
<path d="M741.579 1084.5C742.061 1084.5 742.445 1084.1 742.437 1083.62C742.429 1083.14 742.033 1082.75 741.551 1082.76C741.07 1082.77 740.686 1083.16 740.693 1083.65C740.701 1084.13 741.098 1084.51 741.579 1084.5Z" fill="white"/>
<path d="M934.713 1093.01C935.195 1093 935.579 1092.6 935.571 1092.12C935.563 1091.64 935.167 1091.26 934.685 1091.26C934.204 1091.27 933.819 1091.67 933.827 1092.15C933.835 1092.63 934.232 1093.02 934.713 1093.01Z" fill="white"/>
<path d="M557.368 1089.22C557.85 1089.21 558.234 1088.82 558.226 1088.34C558.218 1087.85 557.822 1087.47 557.34 1087.48C556.859 1087.49 556.475 1087.88 556.483 1088.36C556.49 1088.85 556.887 1089.23 557.368 1089.22Z" fill="white"/>
<path d="M479.865 1077.11C480.346 1077.1 480.73 1076.7 480.722 1076.22C480.715 1075.74 480.318 1075.35 479.836 1075.36C479.355 1075.37 478.971 1075.77 478.979 1076.25C478.986 1076.73 479.383 1077.11 479.865 1077.11Z" fill="white"/>
<path d="M469.607 1054.02C470.088 1054.01 470.472 1053.61 470.465 1053.13C470.457 1052.65 470.06 1052.27 469.579 1052.27C469.097 1052.28 468.713 1052.68 468.721 1053.16C468.729 1053.64 469.125 1054.03 469.607 1054.02Z" fill="white"/>
<path d="M752.982 1034.91C753.463 1034.9 753.847 1034.5 753.84 1034.02C753.832 1033.54 753.435 1033.16 752.954 1033.16C752.472 1033.17 752.088 1033.57 752.096 1034.05C752.104 1034.53 752.5 1034.92 752.982 1034.91Z" fill="white"/>
<path d="M652.556 1079.55C653.038 1079.54 653.422 1079.14 653.414 1078.66C653.406 1078.18 653.009 1077.79 652.528 1077.8C652.046 1077.81 651.662 1078.21 651.67 1078.69C651.678 1079.17 652.074 1079.55 652.556 1079.55Z" fill="white"/>
<path d="M799.411 1102.17C799.893 1102.16 800.277 1101.77 800.269 1101.29C800.261 1100.8 799.865 1100.42 799.383 1100.43C798.902 1100.44 798.518 1100.83 798.526 1101.31C798.533 1101.79 798.93 1102.18 799.411 1102.17Z" fill="white"/>
<path d="M952.783 1060.16C953.265 1060.15 953.649 1059.76 953.641 1059.27C953.633 1058.79 953.237 1058.41 952.755 1058.42C952.274 1058.42 951.89 1058.82 951.898 1059.3C951.905 1059.78 952.302 1060.17 952.783 1060.16Z" fill="white"/>
<path d="M966.217 1027.97C966.699 1027.97 967.083 1027.57 967.075 1027.09C967.067 1026.61 966.67 1026.22 966.189 1026.23C965.707 1026.24 965.323 1026.63 965.331 1027.12C965.339 1027.6 965.736 1027.98 966.217 1027.97Z" fill="white"/>
<path opacity="0.3" d="M828.645 1022.64C829.288 1022.63 829.8 1022.1 829.789 1021.46C829.779 1020.81 829.25 1020.3 828.608 1020.31C827.966 1020.32 827.453 1020.85 827.464 1021.49C827.474 1022.14 828.003 1022.65 828.645 1022.64Z" fill="white"/>
<path d="M827.977 981.372C828.62 981.362 829.132 980.833 829.121 980.191C829.111 979.549 828.582 979.036 827.94 979.047C827.298 979.057 826.785 979.586 826.796 980.228C826.806 980.871 827.335 981.383 827.977 981.372Z" fill="white"/>
<path d="M858.787 1034.94C859.269 1034.93 859.653 1034.54 859.645 1034.05C859.637 1033.57 859.241 1033.19 858.759 1033.2C858.278 1033.2 857.894 1033.6 857.901 1034.08C857.909 1034.56 858.306 1034.95 858.787 1034.94Z" fill="white"/>
<path opacity="0.3" d="M886.611 1011.82C887.253 1011.81 887.766 1011.28 887.755 1010.64C887.745 1010 887.216 1009.48 886.574 1009.49C885.931 1009.5 885.419 1010.03 885.43 1010.68C885.44 1011.32 885.969 1011.83 886.611 1011.82Z" fill="white"/>
<path opacity="0.3" d="M944.807 1052.15C945.449 1052.14 945.961 1051.61 945.951 1050.97C945.94 1050.33 945.411 1049.82 944.769 1049.83C944.127 1049.84 943.615 1050.37 943.625 1051.01C943.635 1051.65 944.164 1052.16 944.807 1052.15Z" fill="white"/>
<path opacity="0.3" d="M876.83 1054.41C877.472 1054.4 877.984 1053.87 877.974 1053.23C877.964 1052.59 877.435 1052.07 876.792 1052.09C876.15 1052.1 875.638 1052.62 875.648 1053.27C875.659 1053.91 876.188 1054.42 876.83 1054.41Z" fill="white"/>
<path opacity="0.3" d="M543.395 1069.68C544.038 1069.67 544.55 1069.14 544.539 1068.5C544.529 1067.86 544 1067.35 543.358 1067.36C542.716 1067.37 542.203 1067.9 542.214 1068.54C542.224 1069.18 542.753 1069.69 543.395 1069.68Z" fill="white"/>
<path opacity="0.3" d="M495.798 1038.48C496.44 1038.47 496.952 1037.94 496.942 1037.29C496.931 1036.65 496.402 1036.14 495.76 1036.15C495.118 1036.16 494.606 1036.69 494.616 1037.33C494.627 1037.97 495.156 1038.49 495.798 1038.48Z" fill="white"/>
<path opacity="0.11" d="M920.697 1035.1C921.339 1035.09 921.852 1034.56 921.841 1033.92C921.831 1033.28 921.302 1032.77 920.66 1032.78C920.017 1032.79 919.505 1033.32 919.516 1033.96C919.526 1034.6 920.055 1035.11 920.697 1035.1Z" fill="white"/>
<path opacity="0.3" d="M578.587 1017.38C579.229 1017.36 579.741 1016.84 579.731 1016.19C579.72 1015.55 579.191 1015.04 578.549 1015.05C577.907 1015.06 577.395 1015.59 577.405 1016.23C577.416 1016.87 577.945 1017.39 578.587 1017.38Z" fill="white"/>
<path opacity="0.11" d="M562.708 1006C563.35 1005.99 563.862 1005.46 563.852 1004.82C563.841 1004.18 563.312 1003.67 562.67 1003.68C562.028 1003.69 561.516 1004.22 561.526 1004.86C561.537 1005.5 562.066 1006.01 562.708 1006Z" fill="white"/>
<path opacity="0.3" d="M558.665 1043.28C559.307 1043.27 559.819 1042.74 559.809 1042.1C559.799 1041.45 559.27 1040.94 558.627 1040.95C557.985 1040.96 557.473 1041.49 557.483 1042.13C557.494 1042.78 558.023 1043.29 558.665 1043.28Z" fill="white"/>
<path d="M594.974 1042.11C595.455 1042.1 595.84 1041.7 595.832 1041.22C595.824 1040.74 595.427 1040.36 594.946 1040.36C594.464 1040.37 594.08 1040.77 594.088 1041.25C594.096 1041.73 594.492 1042.12 594.974 1042.11Z" fill="white"/>
<path opacity="0.11" d="M1006.94 1125.95C1007.59 1125.94 1008.1 1125.41 1008.09 1124.77C1008.08 1124.13 1007.55 1123.62 1006.91 1123.63C1006.26 1123.64 1005.75 1124.17 1005.76 1124.81C1005.77 1125.45 1006.3 1125.96 1006.94 1125.95Z" fill="white"/>
<path d="M1010.82 1132.28C1011.3 1132.28 1011.69 1131.88 1011.68 1131.4C1011.67 1130.92 1011.28 1130.53 1010.79 1130.54C1010.31 1130.55 1009.93 1130.94 1009.94 1131.43C1009.94 1131.91 1010.34 1132.29 1010.82 1132.28Z" fill="white"/>
<path d="M1029.8 1119.77C1030.28 1119.76 1030.67 1119.37 1030.66 1118.89C1030.65 1118.41 1030.26 1118.02 1029.77 1118.03C1029.29 1118.04 1028.91 1118.43 1028.92 1118.91C1028.92 1119.4 1029.32 1119.78 1029.8 1119.77Z" fill="white"/>
<path d="M980.385 1119.4C980.867 1119.4 981.251 1119 981.243 1118.52C981.235 1118.04 980.838 1117.65 980.357 1117.66C979.875 1117.67 979.491 1118.07 979.499 1118.55C979.507 1119.03 979.904 1119.41 980.385 1119.4Z" fill="white"/>
<path opacity="0.11" d="M951.842 1133.82C952.484 1133.81 952.996 1133.28 952.986 1132.64C952.975 1131.99 952.446 1131.48 951.804 1131.49C951.162 1131.5 950.65 1132.03 950.66 1132.67C950.671 1133.32 951.2 1133.83 951.842 1133.82Z" fill="white"/>
<path d="M940.596 1121.21C940.917 1121.2 941.173 1120.94 941.168 1120.62C941.163 1120.3 940.898 1120.04 940.578 1120.05C940.257 1120.05 940.001 1120.32 940.006 1120.64C940.011 1120.96 940.276 1121.22 940.596 1121.21Z" fill="white"/>
<path d="M1005.56 1148.64C1005.88 1148.64 1006.14 1148.38 1006.13 1148.05C1006.13 1147.73 1005.86 1147.48 1005.54 1147.48C1005.22 1147.49 1004.97 1147.75 1004.97 1148.07C1004.98 1148.39 1005.24 1148.65 1005.56 1148.64Z" fill="white"/>
<path d="M1132.26 1146.6C1132.58 1146.59 1132.84 1146.33 1132.83 1146.01C1132.83 1145.69 1132.56 1145.43 1132.24 1145.44C1131.92 1145.44 1131.67 1145.71 1131.67 1146.03C1131.68 1146.35 1131.94 1146.6 1132.26 1146.6Z" fill="white"/>
<path d="M1195.1 1114.19C1195.42 1114.19 1195.67 1113.92 1195.67 1113.6C1195.66 1113.28 1195.4 1113.02 1195.08 1113.03C1194.76 1113.03 1194.5 1113.3 1194.51 1113.62C1194.51 1113.94 1194.78 1114.2 1195.1 1114.19Z" fill="white"/>
<path d="M1218.46 1156.25C1218.78 1156.25 1219.03 1155.98 1219.03 1155.66C1219.02 1155.34 1218.76 1155.08 1218.44 1155.09C1218.12 1155.09 1217.86 1155.36 1217.87 1155.68C1217.87 1156 1218.14 1156.26 1218.46 1156.25Z" fill="white"/>
<path d="M811.795 1137.24C812.116 1137.24 812.371 1136.97 812.366 1136.65C812.361 1136.33 812.097 1136.08 811.776 1136.08C811.455 1136.09 811.199 1136.35 811.204 1136.67C811.21 1136.99 811.474 1137.25 811.795 1137.24Z" fill="white"/>
<path opacity="0.11" d="M802.572 1106C802.893 1106 803.149 1105.73 803.144 1105.41C803.138 1105.09 802.874 1104.84 802.553 1104.84C802.232 1104.85 801.977 1105.11 801.982 1105.43C801.987 1105.75 802.251 1106.01 802.572 1106Z" fill="white"/>
<path opacity="0.11" d="M777.799 1119.77C778.119 1119.77 778.375 1119.51 778.37 1119.18C778.365 1118.86 778.101 1118.61 777.78 1118.61C777.459 1118.62 777.203 1118.88 777.208 1119.2C777.214 1119.52 777.478 1119.78 777.799 1119.77Z" fill="white"/>
<path opacity="0.11" d="M797.541 1154.33C797.862 1154.33 798.117 1154.06 798.112 1153.74C798.107 1153.42 797.843 1153.17 797.522 1153.17C797.201 1153.18 796.945 1153.44 796.951 1153.76C796.956 1154.08 797.22 1154.34 797.541 1154.33Z" fill="white"/>
<path opacity="0.11" d="M935.483 1128.85C935.804 1128.84 936.06 1128.58 936.055 1128.26C936.05 1127.94 935.785 1127.68 935.464 1127.69C935.144 1127.69 934.888 1127.96 934.893 1128.28C934.898 1128.6 935.162 1128.85 935.483 1128.85Z" fill="white"/>
<path opacity="0.11" d="M1004.74 1169.59C1005.06 1169.58 1005.31 1169.32 1005.31 1168.99C1005.3 1168.67 1005.04 1168.42 1004.72 1168.42C1004.4 1168.43 1004.14 1168.69 1004.15 1169.01C1004.15 1169.33 1004.42 1169.59 1004.74 1169.59Z" fill="white"/>
<path opacity="0.11" d="M1116.23 1161.97C1116.55 1161.97 1116.81 1161.7 1116.8 1161.38C1116.8 1161.06 1116.53 1160.8 1116.21 1160.81C1115.89 1160.81 1115.63 1161.08 1115.64 1161.4C1115.64 1161.72 1115.91 1161.98 1116.23 1161.97Z" fill="white"/>
<path opacity="0.3" d="M838.299 1122.28C838.619 1122.28 838.875 1122.01 838.87 1121.69C838.865 1121.37 838.601 1121.12 838.28 1121.12C837.959 1121.13 837.703 1121.39 837.708 1121.71C837.713 1122.03 837.978 1122.29 838.299 1122.28Z" fill="white"/>
<path d="M971.46 1088.74C971.781 1088.73 972.036 1088.47 972.031 1088.15C972.026 1087.83 971.762 1087.57 971.441 1087.58C971.12 1087.58 970.864 1087.85 970.869 1088.17C970.875 1088.49 971.139 1088.74 971.46 1088.74Z" fill="white"/>
<path d="M1060.94 1086.13C1061.26 1086.12 1061.52 1085.86 1061.51 1085.54C1061.51 1085.22 1061.24 1084.96 1060.92 1084.97C1060.6 1084.97 1060.34 1085.24 1060.35 1085.56C1060.36 1085.88 1060.62 1086.14 1060.94 1086.13Z" fill="white"/>
<path d="M932.804 1142.85C933.124 1142.84 933.38 1142.58 933.375 1142.26C933.37 1141.93 933.106 1141.68 932.785 1141.68C932.464 1141.69 932.208 1141.95 932.213 1142.27C932.218 1142.6 932.483 1142.85 932.804 1142.85Z" fill="white"/>
<path opacity="0.3" d="M892.12 1143.5C892.441 1143.5 892.697 1143.23 892.691 1142.91C892.686 1142.59 892.422 1142.34 892.101 1142.34C891.78 1142.35 891.524 1142.61 891.53 1142.93C891.535 1143.25 891.799 1143.51 892.12 1143.5Z" fill="white"/>
<path opacity="0.11" d="M843.885 1108.24C844.205 1108.24 844.461 1107.97 844.456 1107.65C844.451 1107.33 844.187 1107.08 843.866 1107.08C843.545 1107.09 843.289 1107.35 843.294 1107.67C843.299 1107.99 843.564 1108.25 843.885 1108.24Z" fill="white"/>
<path opacity="0.3" d="M982.151 1102.52C982.472 1102.51 982.728 1102.25 982.723 1101.93C982.717 1101.61 982.453 1101.35 982.132 1101.36C981.812 1101.36 981.556 1101.63 981.561 1101.95C981.566 1102.27 981.83 1102.52 982.151 1102.52Z" fill="white"/>
<path opacity="0.3" d="M942.866 1153.73C943.187 1153.73 943.443 1153.46 943.438 1153.14C943.432 1152.82 943.168 1152.56 942.847 1152.57C942.526 1152.57 942.271 1152.84 942.276 1153.16C942.281 1153.48 942.545 1153.74 942.866 1153.73Z" fill="white"/>
<path opacity="0.3" d="M872.636 1160.68C872.956 1160.67 873.212 1160.41 873.207 1160.09C873.202 1159.77 872.938 1159.51 872.617 1159.52C872.296 1159.52 872.04 1159.78 872.045 1160.11C872.05 1160.43 872.315 1160.68 872.636 1160.68Z" fill="white"/>
<path opacity="0.3" d="M855.151 1122.01C855.472 1122.01 855.728 1121.74 855.723 1121.42C855.717 1121.1 855.453 1120.85 855.132 1120.85C854.812 1120.86 854.556 1121.12 854.561 1121.44C854.566 1121.76 854.83 1122.02 855.151 1122.01Z" fill="white"/>
<path opacity="0.3" d="M1216.61 1114.43C1216.93 1114.42 1217.18 1114.16 1217.18 1113.84C1217.17 1113.51 1216.91 1113.26 1216.59 1113.26C1216.27 1113.27 1216.01 1113.53 1216.02 1113.85C1216.02 1114.18 1216.29 1114.43 1216.61 1114.43Z" fill="white"/>
<path opacity="0.11" d="M1122.66 1092.11C1122.98 1092.1 1123.23 1091.84 1123.23 1091.52C1123.22 1091.2 1122.96 1090.94 1122.64 1090.95C1122.32 1090.95 1122.06 1091.22 1122.06 1091.54C1122.07 1091.86 1122.33 1092.11 1122.66 1092.11Z" fill="white"/>
<path opacity="0.11" d="M1201.32 1139.67C1201.64 1139.66 1201.9 1139.4 1201.89 1139.08C1201.89 1138.76 1201.63 1138.5 1201.3 1138.51C1200.98 1138.51 1200.73 1138.77 1200.73 1139.1C1200.74 1139.42 1201 1139.67 1201.32 1139.67Z" fill="white"/>
<path opacity="0.3" d="M1054.37 1147.27C1055.01 1147.26 1055.52 1146.74 1055.51 1146.09C1055.5 1145.45 1054.97 1144.94 1054.33 1144.95C1053.69 1144.96 1053.18 1145.49 1053.19 1146.13C1053.2 1146.77 1053.73 1147.29 1054.37 1147.27Z" fill="white"/>
<path opacity="0.11" d="M1088.38 1129.29C1089.02 1129.28 1089.54 1128.75 1089.52 1128.11C1089.51 1127.46 1088.99 1126.95 1088.34 1126.96C1087.7 1126.97 1087.19 1127.5 1087.2 1128.14C1087.21 1128.79 1087.74 1129.3 1088.38 1129.29Z" fill="white"/>
<path d="M1087.76 1108.95C1088.25 1108.94 1088.63 1108.55 1088.62 1108.07C1088.61 1107.58 1088.22 1107.2 1087.74 1107.21C1087.25 1107.22 1086.87 1107.61 1086.88 1108.09C1086.89 1108.58 1087.28 1108.96 1087.76 1108.95Z" fill="white"/>
<path d="M1048.65 1170.62C1049.13 1170.62 1049.52 1170.22 1049.51 1169.74C1049.5 1169.26 1049.1 1168.87 1048.62 1168.88C1048.14 1168.89 1047.76 1169.28 1047.76 1169.77C1047.77 1170.25 1048.17 1170.63 1048.65 1170.62Z" fill="white"/>
<path d="M1241.78 1179.13C1242.27 1179.12 1242.65 1178.72 1242.64 1178.24C1242.63 1177.76 1242.24 1177.38 1241.76 1177.39C1241.27 1177.39 1240.89 1177.79 1240.9 1178.27C1240.91 1178.75 1241.3 1179.14 1241.78 1179.13Z" fill="white"/>
<path d="M864.44 1175.34C864.921 1175.33 865.305 1174.94 865.297 1174.46C865.29 1173.97 864.893 1173.59 864.412 1173.6C863.93 1173.61 863.546 1174 863.554 1174.48C863.562 1174.97 863.958 1175.35 864.44 1175.34Z" fill="white"/>
<path d="M786.931 1163.23C787.413 1163.22 787.797 1162.82 787.789 1162.34C787.781 1161.86 787.384 1161.48 786.903 1161.48C786.421 1161.49 786.037 1161.89 786.045 1162.37C786.053 1162.85 786.449 1163.23 786.931 1163.23Z" fill="white"/>
<path d="M776.677 1140.14C777.159 1140.13 777.543 1139.73 777.535 1139.25C777.527 1138.77 777.13 1138.39 776.649 1138.4C776.167 1138.4 775.783 1138.8 775.791 1139.28C775.799 1139.76 776.196 1140.15 776.677 1140.14Z" fill="white"/>
<path d="M1060.06 1121.03C1060.54 1121.02 1060.92 1120.62 1060.91 1120.14C1060.91 1119.66 1060.51 1119.28 1060.03 1119.28C1059.55 1119.29 1059.16 1119.69 1059.17 1120.17C1059.18 1120.65 1059.58 1121.04 1060.06 1121.03Z" fill="white"/>
<path d="M959.623 1165.67C960.105 1165.66 960.489 1165.26 960.481 1164.78C960.473 1164.3 960.077 1163.92 959.595 1163.92C959.114 1163.93 958.73 1164.33 958.737 1164.81C958.745 1165.29 959.142 1165.67 959.623 1165.67Z" fill="white"/>
<path d="M1106.49 1188.29C1106.97 1188.28 1107.35 1187.89 1107.34 1187.41C1107.34 1186.92 1106.94 1186.54 1106.46 1186.55C1105.98 1186.56 1105.59 1186.95 1105.6 1187.43C1105.61 1187.91 1106.01 1188.3 1106.49 1188.29Z" fill="white"/>
<path d="M1259.85 1146.28C1260.34 1146.27 1260.72 1145.88 1260.71 1145.4C1260.7 1144.91 1260.31 1144.53 1259.83 1144.54C1259.34 1144.55 1258.96 1144.94 1258.97 1145.42C1258.98 1145.91 1259.37 1146.29 1259.85 1146.28Z" fill="white"/>
<path d="M1273.29 1114.09C1273.77 1114.09 1274.15 1113.69 1274.15 1113.21C1274.14 1112.73 1273.74 1112.34 1273.26 1112.35C1272.78 1112.36 1272.39 1112.75 1272.4 1113.24C1272.41 1113.72 1272.81 1114.1 1273.29 1114.09Z" fill="white"/>
<path opacity="0.3" d="M1135.71 1108.75C1136.36 1108.74 1136.87 1108.21 1136.86 1107.57C1136.85 1106.93 1136.32 1106.42 1135.68 1106.43C1135.03 1106.44 1134.52 1106.97 1134.53 1107.61C1134.54 1108.25 1135.07 1108.76 1135.71 1108.75Z" fill="white"/>
<path d="M1135.04 1067.49C1135.69 1067.48 1136.2 1066.95 1136.19 1066.31C1136.18 1065.67 1135.65 1065.16 1135.01 1065.17C1134.37 1065.18 1133.85 1065.71 1133.86 1066.35C1133.87 1066.99 1134.4 1067.5 1135.04 1067.49Z" fill="white"/>
<path d="M1165.86 1121.06C1166.34 1121.05 1166.72 1120.66 1166.72 1120.18C1166.71 1119.69 1166.31 1119.31 1165.83 1119.32C1165.35 1119.33 1164.96 1119.72 1164.97 1120.2C1164.98 1120.69 1165.38 1121.07 1165.86 1121.06Z" fill="white"/>
<path opacity="0.3" d="M1193.67 1097.94C1194.32 1097.93 1194.83 1097.4 1194.82 1096.76C1194.81 1096.12 1194.28 1095.6 1193.64 1095.61C1192.99 1095.62 1192.48 1096.15 1192.49 1096.8C1192.5 1097.44 1193.03 1097.95 1193.67 1097.94Z" fill="white"/>
<path opacity="0.3" d="M1251.88 1138.27C1252.52 1138.26 1253.04 1137.74 1253.02 1137.09C1253.01 1136.45 1252.49 1135.94 1251.84 1135.95C1251.2 1135.96 1250.69 1136.49 1250.7 1137.13C1250.71 1137.77 1251.24 1138.29 1251.88 1138.27Z" fill="white"/>
<path opacity="0.3" d="M1183.9 1140.53C1184.54 1140.52 1185.05 1140 1185.04 1139.35C1185.03 1138.71 1184.5 1138.2 1183.86 1138.21C1183.22 1138.22 1182.71 1138.75 1182.72 1139.39C1182.73 1140.03 1183.26 1140.54 1183.9 1140.53Z" fill="white"/>
<path opacity="0.3" d="M850.466 1155.8C851.108 1155.79 851.62 1155.26 851.61 1154.62C851.599 1153.98 851.07 1153.47 850.428 1153.48C849.786 1153.49 849.274 1154.02 849.284 1154.66C849.295 1155.3 849.824 1155.81 850.466 1155.8Z" fill="white"/>
<path opacity="0.3" d="M802.872 1124.6C803.514 1124.59 804.026 1124.06 804.016 1123.42C804.006 1122.78 803.477 1122.26 802.834 1122.27C802.192 1122.28 801.68 1122.81 801.69 1123.46C801.701 1124.1 802.23 1124.61 802.872 1124.6Z" fill="white"/>
<path opacity="0.11" d="M1227.77 1121.22C1228.41 1121.21 1228.93 1120.68 1228.92 1120.04C1228.9 1119.4 1228.38 1118.89 1227.73 1118.9C1227.09 1118.91 1226.58 1119.44 1226.59 1120.08C1226.6 1120.72 1227.13 1121.23 1227.77 1121.22Z" fill="white"/>
<path opacity="0.3" d="M885.658 1103.5C886.3 1103.48 886.812 1102.96 886.802 1102.31C886.792 1101.67 886.263 1101.16 885.621 1101.17C884.978 1101.18 884.466 1101.71 884.476 1102.35C884.487 1102.99 885.016 1103.51 885.658 1103.5Z" fill="white"/>
<path opacity="0.11" d="M869.779 1092.13C870.421 1092.12 870.934 1091.59 870.923 1090.95C870.913 1090.3 870.384 1089.79 869.742 1089.8C869.099 1089.81 868.587 1090.34 868.598 1090.98C868.608 1091.63 869.137 1092.14 869.779 1092.13Z" fill="white"/>
<path opacity="0.3" d="M865.732 1129.4C866.375 1129.39 866.887 1128.86 866.876 1128.22C866.866 1127.57 866.337 1127.06 865.695 1127.07C865.053 1127.08 864.54 1127.61 864.551 1128.25C864.561 1128.89 865.09 1129.41 865.732 1129.4Z" fill="white"/>
<path d="M902.049 1128.23C902.531 1128.22 902.915 1127.82 902.907 1127.34C902.899 1126.86 902.503 1126.48 902.021 1126.48C901.539 1126.49 901.155 1126.89 901.163 1127.37C901.171 1127.85 901.568 1128.24 902.049 1128.23Z" fill="white"/>
</g>
</g>
<g opacity="0.4" clip-path="url(#clip1_148_1362)">
<g opacity="0.7">
</g>
</g>
<defs>
<filter id="filter0_f_148_1362" x="-3.05176e-05" y="-3.05176e-05" width="1361.72" height="1243.09" filterUnits="userSpaceOnUse" color-interpolation-filters="sRGB">
<feFlood flood-opacity="0" result="BackgroundImageFix"/>
<feBlend mode="normal" in="SourceGraphic" in2="BackgroundImageFix" result="shape"/>
<feGaussianBlur stdDeviation="137.689" result="effect1_foregroundBlur_148_1362"/>
</filter>
<filter id="filter1_f_148_1362" x="383.259" y="29.6207" width="964.486" height="859.673" filterUnits="userSpaceOnUse" color-interpolation-filters="sRGB">
<feFlood flood-opacity="0" result="BackgroundImageFix"/>
<feBlend mode="normal" in="SourceGraphic" in2="BackgroundImageFix" result="shape"/>
<feGaussianBlur stdDeviation="61.96" result="effect1_foregroundBlur_148_1362"/>
</filter>
<linearGradient id="paint0_linear_148_1362" x1="1027.82" y1="486.612" x2="646.129" y2="932.897" gradientUnits="userSpaceOnUse">
<stop stop-color="#00D1FF"/>
<stop offset="1" stop-color="#51A2FF"/>
</linearGradient>
<clipPath id="clip0_148_1362">
<rect width="863.051" height="723.498" fill="white" transform="translate(598.453 640.309) rotate(32.0559)"/>
</clipPath>
<clipPath id="clip1_148_1362">
<rect width="863.051" height="723.498" fill="white" transform="translate(1024.85 588.336) rotate(9.50842)"/>
</clipPath>
</defs>
</svg>
