<svg width="1935" height="1630" viewBox="0 0 1935 1630" fill="none" xmlns="http://www.w3.org/2000/svg">
<g filter="url(#filter0_f_148_1016)">
<ellipse cx="1267.27" cy="967.283" rx="409.624" ry="341.055" transform="rotate(-31.7593 1267.27 967.283)" fill="url(#paint0_linear_148_1016)"/>
</g>
<g filter="url(#filter1_f_148_1016)">
<ellipse cx="1137.21" cy="1175.73" rx="361.984" ry="301.401" transform="rotate(-31.7593 1137.21 1175.73)" fill="black"/>
</g>
<g opacity="0.6" clip-path="url(#clip0_148_1016)">
<g opacity="0.7">
<path opacity="0.11" d="M1266.04 342.067C1265.42 342.262 1265.09 342.916 1265.28 343.528C1265.48 344.14 1266.13 344.478 1266.74 344.283C1267.36 344.088 1267.69 343.434 1267.5 342.822C1267.3 342.21 1266.65 341.872 1266.04 342.067Z" fill="white"/>
<path d="M1260.51 337.125C1260.05 337.271 1259.79 337.762 1259.94 338.221C1260.09 338.679 1260.58 338.933 1261.04 338.786C1261.49 338.64 1261.75 338.15 1261.6 337.691C1261.46 337.232 1260.97 336.979 1260.51 337.125Z" fill="white"/>
<path d="M1245.93 354.579C1245.47 354.726 1245.22 355.216 1245.36 355.675C1245.51 356.134 1246 356.387 1246.46 356.241C1246.92 356.095 1247.17 355.604 1247.02 355.145C1246.88 354.686 1246.39 354.433 1245.93 354.579Z" fill="white"/>
<path d="M1293.36 340.68C1292.9 340.826 1292.65 341.316 1292.79 341.775C1292.94 342.234 1293.43 342.487 1293.89 342.341C1294.35 342.195 1294.6 341.704 1294.45 341.245C1294.31 340.787 1293.82 340.533 1293.36 340.68Z" fill="white"/>
<path opacity="0.11" d="M1316.53 318.648C1315.92 318.843 1315.58 319.497 1315.78 320.109C1315.97 320.721 1316.63 321.059 1317.24 320.864C1317.85 320.668 1318.19 320.014 1317.99 319.402C1317.8 318.79 1317.14 318.452 1316.53 318.648Z" fill="white"/>
<path d="M1330.94 327.477C1330.63 327.574 1330.46 327.901 1330.56 328.207C1330.66 328.512 1330.98 328.681 1331.29 328.584C1331.6 328.486 1331.76 328.159 1331.67 327.854C1331.57 327.548 1331.24 327.379 1330.94 327.477Z" fill="white"/>
<path d="M1260.82 319.942C1260.51 320.039 1260.35 320.366 1260.44 320.672C1260.54 320.977 1260.87 321.146 1261.17 321.049C1261.48 320.951 1261.65 320.624 1261.55 320.319C1261.45 320.013 1261.13 319.844 1260.82 319.942Z" fill="white"/>
<path d="M1140.09 358.433C1139.79 358.531 1139.62 358.858 1139.72 359.163C1139.81 359.469 1140.14 359.638 1140.45 359.54C1140.75 359.443 1140.92 359.116 1140.82 358.81C1140.73 358.505 1140.4 358.336 1140.09 358.433Z" fill="white"/>
<path d="M1089.26 407.587C1088.96 407.684 1088.79 408.011 1088.89 408.317C1088.99 408.622 1089.31 408.791 1089.62 408.694C1089.92 408.596 1090.09 408.269 1090 407.964C1089.9 407.658 1089.57 407.489 1089.26 407.587Z" fill="white"/>
<path d="M1054.78 374.046C1054.47 374.143 1054.3 374.47 1054.4 374.776C1054.5 375.081 1054.82 375.25 1055.13 375.153C1055.44 375.055 1055.6 374.728 1055.51 374.423C1055.41 374.117 1055.08 373.948 1054.78 374.046Z" fill="white"/>
<path d="M1449.64 274.986C1449.33 275.084 1449.17 275.411 1449.26 275.716C1449.36 276.022 1449.69 276.191 1449.99 276.093C1450.3 275.996 1450.47 275.669 1450.37 275.363C1450.27 275.058 1449.95 274.889 1449.64 274.986Z" fill="white"/>
<path opacity="0.11" d="M1467.48 302.242C1467.17 302.339 1467.01 302.666 1467.1 302.972C1467.2 303.278 1467.53 303.446 1467.83 303.349C1468.14 303.251 1468.31 302.925 1468.21 302.619C1468.11 302.313 1467.79 302.144 1467.48 302.242Z" fill="white"/>
<path opacity="0.11" d="M1487.23 281.912C1486.92 282.009 1486.76 282.336 1486.85 282.642C1486.95 282.948 1487.28 283.116 1487.58 283.019C1487.89 282.921 1488.06 282.595 1487.96 282.289C1487.86 281.983 1487.54 281.814 1487.23 281.912Z" fill="white"/>
<path opacity="0.11" d="M1458.36 254.512C1458.05 254.609 1457.88 254.936 1457.98 255.242C1458.08 255.548 1458.41 255.716 1458.71 255.619C1459.02 255.521 1459.19 255.195 1459.09 254.889C1458.99 254.583 1458.66 254.414 1458.36 254.512Z" fill="white"/>
<path opacity="0.11" d="M1333.63 318.69C1333.32 318.788 1333.15 319.114 1333.25 319.42C1333.35 319.726 1333.68 319.895 1333.98 319.797C1334.29 319.7 1334.46 319.373 1334.36 319.067C1334.26 318.761 1333.93 318.593 1333.63 318.69Z" fill="white"/>
<path opacity="0.11" d="M1255.56 299.651C1255.26 299.748 1255.09 300.075 1255.18 300.381C1255.28 300.686 1255.61 300.855 1255.91 300.758C1256.22 300.66 1256.39 300.333 1256.29 300.028C1256.19 299.722 1255.87 299.553 1255.56 299.651Z" fill="white"/>
<path opacity="0.11" d="M1151.01 339.092C1150.7 339.19 1150.53 339.517 1150.63 339.822C1150.73 340.128 1151.05 340.297 1151.36 340.199C1151.67 340.102 1151.83 339.775 1151.74 339.469C1151.64 339.164 1151.31 338.995 1151.01 339.092Z" fill="white"/>
<path opacity="0.3" d="M1428.58 296.953C1428.27 297.051 1428.1 297.378 1428.2 297.683C1428.3 297.989 1428.62 298.158 1428.93 298.06C1429.24 297.963 1429.4 297.636 1429.31 297.33C1429.21 297.025 1428.88 296.856 1428.58 296.953Z" fill="white"/>
<path d="M1310.75 367.47C1310.44 367.567 1310.27 367.894 1310.37 368.2C1310.47 368.506 1310.8 368.674 1311.1 368.577C1311.41 368.479 1311.58 368.153 1311.48 367.847C1311.38 367.541 1311.06 367.372 1310.75 367.47Z" fill="white"/>
<path d="M1225.82 395.768C1225.51 395.866 1225.35 396.192 1225.44 396.498C1225.54 396.804 1225.87 396.973 1226.17 396.875C1226.48 396.778 1226.65 396.451 1226.55 396.145C1226.45 395.84 1226.13 395.671 1225.82 395.768Z" fill="white"/>
<path d="M1332.16 304.515C1331.85 304.612 1331.69 304.939 1331.78 305.245C1331.88 305.551 1332.21 305.719 1332.51 305.622C1332.82 305.524 1332.99 305.198 1332.89 304.892C1332.79 304.586 1332.47 304.417 1332.16 304.515Z" fill="white"/>
<path opacity="0.3" d="M1370.93 292.153C1370.62 292.25 1370.45 292.577 1370.55 292.883C1370.65 293.189 1370.97 293.357 1371.28 293.26C1371.58 293.163 1371.75 292.836 1371.66 292.53C1371.56 292.224 1371.23 292.056 1370.93 292.153Z" fill="white"/>
<path opacity="0.11" d="M1427.28 312.009C1426.97 312.107 1426.8 312.434 1426.9 312.739C1427 313.045 1427.32 313.214 1427.63 313.116C1427.94 313.019 1428.1 312.692 1428.01 312.386C1427.91 312.081 1427.58 311.912 1427.28 312.009Z" fill="white"/>
<path opacity="0.3" d="M1296.53 357.356C1296.23 357.454 1296.06 357.78 1296.16 358.086C1296.25 358.392 1296.58 358.561 1296.89 358.463C1297.19 358.366 1297.36 358.039 1297.26 357.733C1297.17 357.427 1296.84 357.259 1296.53 357.356Z" fill="white"/>
<path opacity="0.3" d="M1319.39 296.994C1319.08 297.092 1318.91 297.419 1319.01 297.724C1319.11 298.03 1319.43 298.199 1319.74 298.101C1320.04 298.004 1320.21 297.677 1320.12 297.371C1320.02 297.066 1319.69 296.897 1319.39 296.994Z" fill="white"/>
<path opacity="0.3" d="M1384.63 270.092C1384.32 270.19 1384.15 270.517 1384.25 270.822C1384.35 271.128 1384.68 271.297 1384.98 271.199C1385.29 271.102 1385.46 270.775 1385.36 270.469C1385.26 270.164 1384.93 269.995 1384.63 270.092Z" fill="white"/>
<path opacity="0.3" d="M1412.52 302.072C1412.21 302.17 1412.04 302.497 1412.14 302.802C1412.24 303.108 1412.57 303.277 1412.87 303.179C1413.18 303.082 1413.35 302.755 1413.25 302.449C1413.15 302.144 1412.82 301.975 1412.52 302.072Z" fill="white"/>
<path opacity="0.3" d="M1068.6 413.564C1068.3 413.661 1068.13 413.988 1068.22 414.294C1068.32 414.599 1068.65 414.768 1068.95 414.671C1069.26 414.573 1069.43 414.246 1069.33 413.941C1069.23 413.635 1068.91 413.466 1068.6 413.564Z" fill="white"/>
<path opacity="0.11" d="M1165 407.842C1164.69 407.94 1164.52 408.267 1164.62 408.572C1164.72 408.878 1165.05 409.047 1165.35 408.949C1165.66 408.852 1165.83 408.525 1165.73 408.219C1165.63 407.914 1165.31 407.745 1165 407.842Z" fill="white"/>
<path opacity="0.11" d="M1075.96 384.986C1075.65 385.084 1075.49 385.411 1075.58 385.716C1075.68 386.022 1076.01 386.191 1076.31 386.093C1076.62 385.996 1076.79 385.669 1076.69 385.363C1076.59 385.058 1076.27 384.889 1075.96 384.986Z" fill="white"/>
<path opacity="0.3" d="M1214.48 335.327C1213.87 335.522 1213.53 336.177 1213.72 336.789C1213.92 337.4 1214.57 337.738 1215.18 337.543C1215.8 337.348 1216.13 336.694 1215.94 336.082C1215.74 335.47 1215.09 335.132 1214.48 335.327Z" fill="white"/>
<path opacity="0.11" d="M1187.1 362.357C1186.49 362.552 1186.15 363.206 1186.34 363.818C1186.54 364.43 1187.19 364.768 1187.81 364.573C1188.42 364.378 1188.76 363.724 1188.56 363.112C1188.37 362.5 1187.71 362.162 1187.1 362.357Z" fill="white"/>
<path d="M1193.55 381.65C1193.09 381.797 1192.84 382.287 1192.99 382.746C1193.13 383.205 1193.62 383.458 1194.08 383.312C1194.54 383.165 1194.8 382.675 1194.65 382.216C1194.5 381.757 1194.01 381.504 1193.55 381.65Z" fill="white"/>
<path d="M1213.22 311.321C1212.76 311.467 1212.51 311.958 1212.66 312.416C1212.8 312.875 1213.29 313.128 1213.75 312.982C1214.21 312.836 1214.46 312.345 1214.32 311.887C1214.17 311.428 1213.68 311.174 1213.22 311.321Z" fill="white"/>
<path d="M1025.84 358.869C1025.38 359.015 1025.13 359.505 1025.27 359.964C1025.42 360.423 1025.91 360.676 1026.37 360.53C1026.83 360.384 1027.08 359.893 1026.93 359.434C1026.79 358.976 1026.3 358.722 1025.84 358.869Z" fill="white"/>
<path d="M1388.24 253.687C1387.79 253.833 1387.53 254.324 1387.68 254.783C1387.83 255.241 1388.32 255.495 1388.77 255.348C1389.23 255.202 1389.49 254.712 1389.34 254.253C1389.19 253.794 1388.7 253.541 1388.24 253.687Z" fill="white"/>
<path d="M1465.96 242.938C1465.5 243.085 1465.24 243.575 1465.39 244.034C1465.54 244.493 1466.03 244.746 1466.49 244.6C1466.94 244.454 1467.2 243.963 1467.05 243.504C1466.9 243.045 1466.41 242.792 1465.96 242.938Z" fill="white"/>
<path d="M1482.43 262.088C1481.97 262.234 1481.72 262.725 1481.87 263.183C1482.01 263.642 1482.5 263.896 1482.96 263.749C1483.42 263.603 1483.67 263.112 1483.53 262.654C1483.38 262.195 1482.89 261.941 1482.43 262.088Z" fill="white"/>
<path d="M1216.6 362.099C1216.14 362.246 1215.89 362.736 1216.03 363.195C1216.18 363.654 1216.67 363.907 1217.13 363.761C1217.59 363.615 1217.84 363.124 1217.7 362.665C1217.55 362.206 1217.06 361.953 1216.6 362.099Z" fill="white"/>
<path d="M1299.89 290.396C1299.43 290.543 1299.18 291.033 1299.33 291.492C1299.47 291.951 1299.96 292.204 1300.42 292.058C1300.88 291.912 1301.13 291.421 1300.99 290.962C1300.84 290.503 1300.35 290.25 1299.89 290.396Z" fill="white"/>
<path d="M1152.75 311.079C1152.29 311.225 1152.04 311.716 1152.18 312.175C1152.33 312.633 1152.82 312.887 1153.28 312.74C1153.74 312.594 1153.99 312.104 1153.84 311.645C1153.7 311.186 1153.21 310.933 1152.75 311.079Z" fill="white"/>
<path d="M1018.01 395.53C1017.55 395.676 1017.3 396.167 1017.44 396.626C1017.59 397.085 1018.08 397.338 1018.54 397.192C1019 397.045 1019.25 396.555 1019.11 396.096C1018.96 395.637 1018.47 395.384 1018.01 395.53Z" fill="white"/>
<path d="M1014.43 430.226C1013.97 430.373 1013.72 430.863 1013.87 431.322C1014.01 431.781 1014.5 432.034 1014.96 431.888C1015.42 431.742 1015.67 431.251 1015.53 430.792C1015.38 430.333 1014.89 430.08 1014.43 430.226Z" fill="white"/>
<path opacity="0.3" d="M1147.69 395.665C1147.08 395.86 1146.74 396.515 1146.94 397.126C1147.13 397.738 1147.79 398.076 1148.4 397.881C1149.01 397.686 1149.35 397.032 1149.15 396.42C1148.96 395.808 1148.3 395.47 1147.69 395.665Z" fill="white"/>
<path d="M1160.23 434.983C1159.62 435.178 1159.28 435.832 1159.47 436.444C1159.67 437.056 1160.32 437.394 1160.93 437.199C1161.55 437.003 1161.88 436.349 1161.69 435.737C1161.49 435.125 1160.84 434.787 1160.23 434.983Z" fill="white"/>
<path d="M1115.28 392.576C1114.82 392.722 1114.57 393.212 1114.72 393.671C1114.86 394.13 1115.35 394.383 1115.81 394.237C1116.27 394.091 1116.53 393.6 1116.38 393.141C1116.23 392.683 1115.74 392.429 1115.28 392.576Z" fill="white"/>
<path opacity="0.3" d="M1095.31 422.736C1094.7 422.932 1094.36 423.586 1094.56 424.198C1094.75 424.81 1095.4 425.148 1096.02 424.952C1096.63 424.757 1096.97 424.103 1096.77 423.491C1096.58 422.879 1095.92 422.541 1095.31 422.736Z" fill="white"/>
<path opacity="0.3" d="M1027.95 400.899C1027.34 401.094 1027 401.748 1027.2 402.36C1027.39 402.972 1028.05 403.31 1028.66 403.115C1029.27 402.92 1029.61 402.266 1029.41 401.654C1029.22 401.042 1028.56 400.704 1027.95 400.899Z" fill="white"/>
<path opacity="0.3" d="M1092.4 379.134C1091.78 379.329 1091.45 379.983 1091.64 380.595C1091.84 381.207 1092.49 381.545 1093.1 381.35C1093.71 381.155 1094.05 380.501 1093.86 379.889C1093.66 379.277 1093.01 378.939 1092.4 379.134Z" fill="white"/>
<path opacity="0.3" d="M1407.26 268.366C1406.65 268.561 1406.31 269.215 1406.51 269.827C1406.7 270.439 1407.36 270.777 1407.97 270.582C1408.58 270.387 1408.92 269.732 1408.72 269.121C1408.53 268.509 1407.88 268.171 1407.26 268.366Z" fill="white"/>
<path opacity="0.3" d="M1461.83 284.521C1461.22 284.716 1460.88 285.37 1461.08 285.982C1461.27 286.594 1461.93 286.932 1462.54 286.737C1463.15 286.542 1463.49 285.888 1463.29 285.276C1463.1 284.664 1462.45 284.326 1461.83 284.521Z" fill="white"/>
<path opacity="0.11" d="M1055.96 410.274C1055.35 410.469 1055.01 411.123 1055.2 411.735C1055.4 412.347 1056.05 412.685 1056.67 412.49C1057.28 412.295 1057.61 411.641 1057.42 411.029C1057.22 410.417 1056.57 410.079 1055.96 410.274Z" fill="white"/>
<path opacity="0.3" d="M1388.65 328.598C1388.03 328.793 1387.7 329.447 1387.89 330.059C1388.09 330.671 1388.74 331.009 1389.35 330.814C1389.96 330.619 1390.3 329.964 1390.11 329.352C1389.91 328.741 1389.26 328.403 1388.65 328.598Z" fill="white"/>
<path opacity="0.11" d="M1407.13 334.906C1406.51 335.101 1406.18 335.756 1406.37 336.368C1406.57 336.98 1407.22 337.317 1407.83 337.122C1408.44 336.927 1408.78 336.273 1408.59 335.661C1408.39 335.049 1407.74 334.711 1407.13 334.906Z" fill="white"/>
<path opacity="0.3" d="M1400.26 298.053C1399.64 298.248 1399.31 298.902 1399.5 299.514C1399.7 300.126 1400.35 300.464 1400.96 300.269C1401.57 300.074 1401.91 299.419 1401.72 298.808C1401.52 298.196 1400.87 297.858 1400.26 298.053Z" fill="white"/>
<path d="M1365.82 309.641C1365.36 309.787 1365.11 310.278 1365.26 310.737C1365.4 311.195 1365.89 311.449 1366.35 311.302C1366.81 311.156 1367.06 310.666 1366.92 310.207C1366.77 309.748 1366.28 309.495 1365.82 309.641Z" fill="white"/>
<path opacity="0.11" d="M1128.45 572.244C1127.84 572.439 1127.5 573.094 1127.7 573.706C1127.9 574.317 1128.55 574.655 1129.16 574.46C1129.77 574.265 1130.11 573.611 1129.92 572.999C1129.72 572.387 1129.07 572.049 1128.45 572.244Z" fill="white"/>
<path d="M1122.91 567.3C1122.45 567.446 1122.2 567.937 1122.35 568.396C1122.49 568.855 1122.98 569.108 1123.44 568.962C1123.9 568.815 1124.15 568.325 1124.01 567.866C1123.86 567.407 1123.37 567.154 1122.91 567.3Z" fill="white"/>
<path d="M1108.34 584.756C1107.88 584.902 1107.63 585.393 1107.78 585.851C1107.92 586.31 1108.41 586.564 1108.87 586.417C1109.33 586.271 1109.58 585.78 1109.44 585.322C1109.29 584.863 1108.8 584.609 1108.34 584.756Z" fill="white"/>
<path d="M1155.77 570.857C1155.31 571.004 1155.06 571.494 1155.2 571.953C1155.35 572.412 1155.84 572.665 1156.3 572.519C1156.76 572.373 1157.01 571.882 1156.86 571.423C1156.72 570.964 1156.23 570.711 1155.77 570.857Z" fill="white"/>
<path opacity="0.11" d="M1178.95 548.824C1178.33 549.019 1178 549.674 1178.19 550.286C1178.39 550.898 1179.04 551.235 1179.65 551.04C1180.27 550.845 1180.6 550.191 1180.41 549.579C1180.21 548.967 1179.56 548.629 1178.95 548.824Z" fill="white"/>
<path d="M1193.35 557.652C1193.05 557.75 1192.88 558.077 1192.97 558.382C1193.07 558.688 1193.4 558.857 1193.7 558.759C1194.01 558.662 1194.18 558.335 1194.08 558.029C1193.98 557.724 1193.66 557.555 1193.35 557.652Z" fill="white"/>
<path d="M1123.23 550.117C1122.93 550.215 1122.76 550.542 1122.86 550.847C1122.95 551.153 1123.28 551.322 1123.59 551.224C1123.89 551.127 1124.06 550.8 1123.96 550.494C1123.87 550.189 1123.54 550.02 1123.23 550.117Z" fill="white"/>
<path d="M1002.5 588.609C1002.2 588.706 1002.03 589.033 1002.13 589.339C1002.22 589.644 1002.55 589.813 1002.86 589.716C1003.16 589.618 1003.33 589.291 1003.23 588.986C1003.14 588.68 1002.81 588.511 1002.5 588.609Z" fill="white"/>
<path d="M951.683 637.761C951.377 637.858 951.208 638.185 951.306 638.491C951.403 638.797 951.73 638.965 952.036 638.868C952.342 638.77 952.51 638.444 952.413 638.138C952.316 637.832 951.989 637.663 951.683 637.761Z" fill="white"/>
<path d="M917.191 604.221C916.885 604.318 916.716 604.645 916.814 604.951C916.911 605.257 917.238 605.425 917.544 605.328C917.849 605.23 918.018 604.904 917.921 604.598C917.823 604.292 917.496 604.123 917.191 604.221Z" fill="white"/>
<path d="M1312.05 505.163C1311.75 505.261 1311.58 505.588 1311.68 505.893C1311.77 506.199 1312.1 506.368 1312.41 506.27C1312.71 506.173 1312.88 505.846 1312.78 505.54C1312.69 505.235 1312.36 505.066 1312.05 505.163Z" fill="white"/>
<path opacity="0.11" d="M1329.89 532.418C1329.59 532.516 1329.42 532.842 1329.52 533.148C1329.61 533.454 1329.94 533.623 1330.25 533.525C1330.55 533.428 1330.72 533.101 1330.62 532.795C1330.53 532.489 1330.2 532.321 1329.89 532.418Z" fill="white"/>
<path opacity="0.11" d="M1349.64 512.088C1349.33 512.186 1349.17 512.512 1349.26 512.818C1349.36 513.124 1349.69 513.293 1349.99 513.195C1350.3 513.098 1350.47 512.771 1350.37 512.465C1350.27 512.159 1349.95 511.991 1349.64 512.088Z" fill="white"/>
<path opacity="0.11" d="M1320.77 484.688C1320.47 484.786 1320.3 485.112 1320.4 485.418C1320.49 485.724 1320.82 485.893 1321.13 485.795C1321.43 485.698 1321.6 485.371 1321.5 485.065C1321.41 484.759 1321.08 484.591 1320.77 484.688Z" fill="white"/>
<path opacity="0.11" d="M1196.04 548.867C1195.74 548.964 1195.57 549.291 1195.67 549.597C1195.76 549.903 1196.09 550.071 1196.4 549.974C1196.7 549.876 1196.87 549.55 1196.77 549.244C1196.67 548.938 1196.35 548.769 1196.04 548.867Z" fill="white"/>
<path opacity="0.11" d="M1117.98 529.827C1117.67 529.924 1117.5 530.251 1117.6 530.557C1117.7 530.863 1118.02 531.031 1118.33 530.934C1118.63 530.836 1118.8 530.51 1118.71 530.204C1118.61 529.898 1118.28 529.729 1117.98 529.827Z" fill="white"/>
<path opacity="0.11" d="M1013.42 569.269C1013.12 569.366 1012.95 569.693 1013.04 569.999C1013.14 570.304 1013.47 570.473 1013.77 570.376C1014.08 570.278 1014.25 569.951 1014.15 569.646C1014.05 569.34 1013.73 569.171 1013.42 569.269Z" fill="white"/>
<path opacity="0.3" d="M1290.99 527.13C1290.69 527.227 1290.52 527.554 1290.61 527.86C1290.71 528.166 1291.04 528.335 1291.34 528.237C1291.65 528.14 1291.82 527.813 1291.72 527.507C1291.62 527.201 1291.3 527.033 1290.99 527.13Z" fill="white"/>
<path d="M1173.16 597.647C1172.86 597.744 1172.69 598.071 1172.79 598.377C1172.88 598.682 1173.21 598.851 1173.52 598.754C1173.82 598.656 1173.99 598.329 1173.89 598.024C1173.8 597.718 1173.47 597.549 1173.16 597.647Z" fill="white"/>
<path d="M1088.23 625.946C1087.92 626.044 1087.76 626.371 1087.85 626.676C1087.95 626.982 1088.28 627.151 1088.58 627.053C1088.89 626.956 1089.06 626.629 1088.96 626.323C1088.86 626.018 1088.54 625.849 1088.23 625.946Z" fill="white"/>
<path d="M1194.57 534.691C1194.27 534.788 1194.1 535.115 1194.2 535.421C1194.29 535.726 1194.62 535.895 1194.93 535.798C1195.23 535.7 1195.4 535.373 1195.3 535.068C1195.21 534.762 1194.88 534.593 1194.57 534.691Z" fill="white"/>
<path opacity="0.3" d="M1233.34 522.33C1233.03 522.427 1232.86 522.754 1232.96 523.06C1233.06 523.365 1233.39 523.534 1233.69 523.437C1234 523.339 1234.17 523.012 1234.07 522.707C1233.97 522.401 1233.64 522.232 1233.34 522.33Z" fill="white"/>
<path opacity="0.11" d="M1289.69 542.185C1289.39 542.283 1289.22 542.609 1289.31 542.915C1289.41 543.221 1289.74 543.39 1290.04 543.292C1290.35 543.195 1290.52 542.868 1290.42 542.562C1290.32 542.257 1290 542.088 1289.69 542.185Z" fill="white"/>
<path opacity="0.3" d="M1158.95 587.533C1158.64 587.63 1158.47 587.957 1158.57 588.263C1158.67 588.569 1159 588.737 1159.3 588.64C1159.61 588.542 1159.78 588.216 1159.68 587.91C1159.58 587.604 1159.25 587.435 1158.95 587.533Z" fill="white"/>
<path opacity="0.3" d="M1181.8 527.171C1181.49 527.268 1181.33 527.595 1181.42 527.901C1181.52 528.207 1181.85 528.376 1182.15 528.278C1182.46 528.181 1182.63 527.854 1182.53 527.548C1182.43 527.242 1182.11 527.074 1181.8 527.171Z" fill="white"/>
<path opacity="0.3" d="M1247.04 500.268C1246.74 500.366 1246.57 500.692 1246.67 500.998C1246.76 501.304 1247.09 501.473 1247.4 501.375C1247.7 501.278 1247.87 500.951 1247.77 500.645C1247.67 500.34 1247.35 500.171 1247.04 500.268Z" fill="white"/>
<path opacity="0.3" d="M1274.93 532.248C1274.62 532.346 1274.45 532.672 1274.55 532.978C1274.65 533.284 1274.98 533.453 1275.28 533.355C1275.59 533.258 1275.76 532.931 1275.66 532.625C1275.56 532.319 1275.23 532.151 1274.93 532.248Z" fill="white"/>
<path opacity="0.3" d="M931.015 643.74C930.709 643.837 930.54 644.164 930.638 644.47C930.735 644.776 931.062 644.944 931.368 644.847C931.674 644.749 931.842 644.423 931.745 644.117C931.648 643.811 931.321 643.642 931.015 643.74Z" fill="white"/>
<path opacity="0.11" d="M1027.41 638.016C1027.11 638.114 1026.94 638.441 1027.04 638.746C1027.13 639.052 1027.46 639.221 1027.77 639.123C1028.07 639.026 1028.24 638.699 1028.14 638.393C1028.05 638.088 1027.72 637.919 1027.41 638.016Z" fill="white"/>
<path opacity="0.11" d="M938.374 615.162C938.069 615.26 937.9 615.587 937.997 615.892C938.095 616.198 938.422 616.367 938.727 616.269C939.033 616.172 939.202 615.845 939.104 615.539C939.007 615.234 938.68 615.065 938.374 615.162Z" fill="white"/>
<path opacity="0.3" d="M1076.89 565.501C1076.28 565.696 1075.94 566.35 1076.14 566.962C1076.33 567.574 1076.99 567.912 1077.6 567.717C1078.21 567.522 1078.55 566.868 1078.35 566.256C1078.16 565.644 1077.5 565.306 1076.89 565.501Z" fill="white"/>
<path opacity="0.11" d="M1049.52 592.533C1048.91 592.728 1048.57 593.383 1048.76 593.995C1048.96 594.607 1049.61 594.944 1050.22 594.749C1050.84 594.554 1051.17 593.9 1050.98 593.288C1050.78 592.676 1050.13 592.338 1049.52 592.533Z" fill="white"/>
<path d="M1055.97 611.827C1055.51 611.973 1055.26 612.463 1055.4 612.922C1055.55 613.381 1056.04 613.634 1056.5 613.488C1056.96 613.342 1057.21 612.851 1057.06 612.392C1056.92 611.934 1056.43 611.68 1055.97 611.827Z" fill="white"/>
<path d="M1075.64 541.497C1075.18 541.644 1074.92 542.134 1075.07 542.593C1075.22 543.052 1075.71 543.305 1076.16 543.159C1076.62 543.013 1076.88 542.522 1076.73 542.063C1076.58 541.605 1076.09 541.351 1075.64 541.497Z" fill="white"/>
<path d="M888.252 589.044C887.794 589.191 887.54 589.681 887.687 590.14C887.833 590.599 888.323 590.852 888.782 590.706C889.241 590.56 889.494 590.069 889.348 589.61C889.202 589.151 888.711 588.898 888.252 589.044Z" fill="white"/>
<path d="M1250.66 483.862C1250.2 484.008 1249.95 484.499 1250.1 484.957C1250.24 485.416 1250.73 485.669 1251.19 485.523C1251.65 485.377 1251.9 484.886 1251.76 484.428C1251.61 483.969 1251.12 483.715 1250.66 483.862Z" fill="white"/>
<path d="M1328.37 473.115C1327.91 473.261 1327.65 473.751 1327.8 474.21C1327.95 474.669 1328.44 474.922 1328.9 474.776C1329.35 474.63 1329.61 474.139 1329.46 473.68C1329.32 473.222 1328.82 472.968 1328.37 473.115Z" fill="white"/>
<path d="M1344.85 492.264C1344.39 492.41 1344.13 492.901 1344.28 493.36C1344.43 493.818 1344.92 494.072 1345.38 493.926C1345.83 493.779 1346.09 493.289 1345.94 492.83C1345.8 492.371 1345.3 492.118 1344.85 492.264Z" fill="white"/>
<path d="M1079.02 592.274C1078.56 592.421 1078.31 592.911 1078.45 593.37C1078.6 593.829 1079.09 594.082 1079.55 593.936C1080.01 593.79 1080.26 593.299 1080.11 592.84C1079.97 592.381 1079.48 592.128 1079.02 592.274Z" fill="white"/>
<path d="M1162.31 520.573C1161.85 520.719 1161.59 521.21 1161.74 521.669C1161.89 522.128 1162.38 522.381 1162.84 522.235C1163.3 522.088 1163.55 521.598 1163.4 521.139C1163.26 520.68 1162.77 520.427 1162.31 520.573Z" fill="white"/>
<path d="M1015.16 541.256C1014.7 541.402 1014.45 541.893 1014.6 542.351C1014.74 542.81 1015.23 543.064 1015.69 542.917C1016.15 542.771 1016.4 542.28 1016.26 541.822C1016.11 541.363 1015.62 541.109 1015.16 541.256Z" fill="white"/>
<path d="M880.424 625.706C879.965 625.853 879.712 626.343 879.858 626.802C880.005 627.261 880.495 627.514 880.954 627.368C881.413 627.222 881.666 626.731 881.52 626.272C881.374 625.813 880.883 625.56 880.424 625.706Z" fill="white"/>
<path d="M876.842 660.401C876.383 660.547 876.13 661.038 876.276 661.496C876.423 661.955 876.913 662.209 877.372 662.062C877.831 661.916 878.084 661.425 877.938 660.967C877.792 660.508 877.301 660.254 876.842 660.401Z" fill="white"/>
<path opacity="0.3" d="M1010.11 625.841C1009.5 626.037 1009.16 626.691 1009.35 627.303C1009.55 627.915 1010.2 628.253 1010.81 628.057C1011.43 627.862 1011.76 627.208 1011.57 626.596C1011.37 625.984 1010.72 625.646 1010.11 625.841Z" fill="white"/>
<path d="M1022.65 665.16C1022.03 665.355 1021.7 666.009 1021.89 666.621C1022.09 667.233 1022.74 667.571 1023.35 667.376C1023.96 667.181 1024.3 666.526 1024.11 665.914C1023.91 665.303 1023.26 664.965 1022.65 665.16Z" fill="white"/>
<path d="M977.698 622.751C977.239 622.898 976.986 623.388 977.132 623.847C977.278 624.306 977.769 624.559 978.227 624.413C978.686 624.267 978.94 623.776 978.793 623.317C978.647 622.858 978.156 622.605 977.698 622.751Z" fill="white"/>
<path opacity="0.3" d="M957.724 652.913C957.112 653.108 956.774 653.763 956.969 654.374C957.165 654.986 957.819 655.324 958.431 655.129C959.043 654.934 959.381 654.28 959.185 653.668C958.99 653.056 958.336 652.718 957.724 652.913Z" fill="white"/>
<path opacity="0.3" d="M890.369 631.076C889.757 631.271 889.419 631.925 889.614 632.537C889.809 633.149 890.463 633.487 891.075 633.292C891.687 633.097 892.025 632.442 891.83 631.83C891.635 631.219 890.981 630.881 890.369 631.076Z" fill="white"/>
<path opacity="0.3" d="M954.81 609.31C954.198 609.505 953.86 610.16 954.055 610.771C954.25 611.383 954.905 611.721 955.517 611.526C956.129 611.331 956.466 610.677 956.271 610.065C956.076 609.453 955.422 609.115 954.81 609.31Z" fill="white"/>
<path opacity="0.3" d="M1269.68 498.543C1269.07 498.738 1268.73 499.392 1268.92 500.004C1269.12 500.616 1269.77 500.954 1270.38 500.759C1271 500.563 1271.33 499.909 1271.14 499.297C1270.94 498.685 1270.29 498.347 1269.68 498.543Z" fill="white"/>
<path opacity="0.3" d="M1324.25 514.697C1323.64 514.892 1323.3 515.547 1323.49 516.159C1323.69 516.771 1324.34 517.108 1324.95 516.913C1325.57 516.718 1325.9 516.064 1325.71 515.452C1325.51 514.84 1324.86 514.502 1324.25 514.697Z" fill="white"/>
<path opacity="0.11" d="M918.373 640.448C917.761 640.643 917.423 641.298 917.618 641.91C917.813 642.522 918.467 642.859 919.079 642.664C919.691 642.469 920.029 641.815 919.834 641.203C919.639 640.591 918.984 640.253 918.373 640.448Z" fill="white"/>
<path opacity="0.3" d="M1251.06 558.775C1250.45 558.97 1250.11 559.624 1250.31 560.236C1250.5 560.848 1251.15 561.186 1251.77 560.991C1252.38 560.795 1252.72 560.141 1252.52 559.529C1252.33 558.917 1251.67 558.579 1251.06 558.775Z" fill="white"/>
<path opacity="0.11" d="M1269.54 565.084C1268.93 565.279 1268.59 565.933 1268.79 566.545C1268.98 567.157 1269.64 567.495 1270.25 567.3C1270.86 567.105 1271.2 566.451 1271.01 565.839C1270.81 565.227 1270.16 564.889 1269.54 565.084Z" fill="white"/>
<path opacity="0.3" d="M1262.67 528.229C1262.05 528.424 1261.72 529.078 1261.91 529.69C1262.11 530.302 1262.76 530.64 1263.37 530.445C1263.98 530.249 1264.32 529.595 1264.13 528.983C1263.93 528.371 1263.28 528.034 1262.67 528.229Z" fill="white"/>
<path d="M1228.24 539.818C1227.78 539.965 1227.52 540.455 1227.67 540.914C1227.82 541.373 1228.31 541.626 1228.77 541.48C1229.23 541.333 1229.48 540.843 1229.33 540.384C1229.19 539.925 1228.7 539.672 1228.24 539.818Z" fill="white"/>
<path opacity="0.11" d="M809.591 578.326C808.979 578.521 808.642 579.176 808.837 579.788C809.032 580.399 809.686 580.737 810.298 580.542C810.91 580.347 811.248 579.693 811.053 579.081C810.857 578.469 810.203 578.131 809.591 578.326Z" fill="white"/>
<path d="M804.053 573.383C803.594 573.529 803.341 574.02 803.487 574.478C803.634 574.937 804.124 575.191 804.583 575.044C805.042 574.898 805.295 574.407 805.149 573.949C805.003 573.49 804.512 573.236 804.053 573.383Z" fill="white"/>
<path d="M789.483 590.836C789.024 590.983 788.771 591.473 788.917 591.932C789.063 592.391 789.554 592.644 790.013 592.498C790.471 592.352 790.725 591.861 790.578 591.402C790.432 590.943 789.942 590.69 789.483 590.836Z" fill="white"/>
<path d="M836.909 576.938C836.45 577.084 836.197 577.575 836.343 578.034C836.489 578.492 836.98 578.746 837.438 578.599C837.897 578.453 838.151 577.963 838.004 577.504C837.858 577.045 837.367 576.792 836.909 576.938Z" fill="white"/>
<path opacity="0.11" d="M860.083 554.906C859.471 555.101 859.134 555.756 859.329 556.368C859.524 556.98 860.178 557.317 860.79 557.122C861.402 556.927 861.74 556.273 861.545 555.661C861.35 555.049 860.695 554.711 860.083 554.906Z" fill="white"/>
<path d="M874.488 563.735C874.182 563.832 874.013 564.159 874.111 564.465C874.208 564.771 874.535 564.939 874.841 564.842C875.146 564.745 875.315 564.418 875.218 564.112C875.12 563.806 874.793 563.637 874.488 563.735Z" fill="white"/>
<path d="M804.37 556.2C804.065 556.297 803.896 556.624 803.993 556.93C804.091 557.236 804.418 557.404 804.723 557.307C805.029 557.209 805.198 556.883 805.1 556.577C805.003 556.271 804.676 556.102 804.37 556.2Z" fill="white"/>
<path d="M683.644 594.691C683.338 594.789 683.169 595.116 683.267 595.422C683.364 595.727 683.691 595.896 683.997 595.799C684.303 595.701 684.471 595.374 684.374 595.069C684.276 594.763 683.95 594.594 683.644 594.691Z" fill="white"/>
<path d="M632.82 643.843C632.514 643.941 632.345 644.268 632.443 644.573C632.54 644.879 632.867 645.048 633.173 644.95C633.478 644.853 633.647 644.526 633.55 644.22C633.452 643.915 633.125 643.746 632.82 643.843Z" fill="white"/>
<path d="M598.327 610.304C598.022 610.401 597.853 610.728 597.95 611.034C598.048 611.34 598.375 611.508 598.68 611.411C598.986 611.313 599.155 610.987 599.058 610.681C598.96 610.375 598.633 610.206 598.327 610.304Z" fill="white"/>
<path d="M993.195 511.244C992.889 511.341 992.72 511.668 992.818 511.974C992.915 512.279 993.242 512.448 993.548 512.351C993.853 512.253 994.022 511.926 993.925 511.621C993.827 511.315 993.5 511.146 993.195 511.244Z" fill="white"/>
<path opacity="0.11" d="M1011.03 538.499C1010.73 538.596 1010.56 538.923 1010.66 539.229C1010.75 539.534 1011.08 539.703 1011.39 539.606C1011.69 539.508 1011.86 539.181 1011.76 538.876C1011.67 538.57 1011.34 538.401 1011.03 538.499Z" fill="white"/>
<path opacity="0.11" d="M1030.78 518.169C1030.47 518.267 1030.31 518.593 1030.4 518.899C1030.5 519.205 1030.83 519.374 1031.13 519.276C1031.44 519.179 1031.61 518.852 1031.51 518.546C1031.41 518.24 1031.09 518.072 1030.78 518.169Z" fill="white"/>
<path opacity="0.11" d="M1001.91 490.769C1001.61 490.866 1001.44 491.193 1001.54 491.499C1001.63 491.804 1001.96 491.973 1002.27 491.876C1002.57 491.778 1002.74 491.451 1002.64 491.146C1002.55 490.84 1002.22 490.671 1001.91 490.769Z" fill="white"/>
<path opacity="0.11" d="M877.183 554.947C876.877 555.045 876.708 555.372 876.806 555.677C876.903 555.983 877.23 556.152 877.536 556.054C877.842 555.957 878.01 555.63 877.913 555.324C877.816 555.019 877.489 554.85 877.183 554.947Z" fill="white"/>
<path opacity="0.11" d="M799.124 535.911C798.819 536.008 798.65 536.335 798.747 536.641C798.845 536.946 799.172 537.115 799.477 537.018C799.783 536.92 799.952 536.594 799.854 536.288C799.757 535.982 799.43 535.813 799.124 535.911Z" fill="white"/>
<path opacity="0.11" d="M694.562 575.351C694.256 575.449 694.087 575.775 694.185 576.081C694.282 576.387 694.609 576.556 694.915 576.458C695.221 576.361 695.389 576.034 695.292 575.728C695.194 575.422 694.868 575.254 694.562 575.351Z" fill="white"/>
<path opacity="0.3" d="M972.132 533.213C971.826 533.31 971.658 533.637 971.755 533.943C971.853 534.248 972.179 534.417 972.485 534.32C972.791 534.222 972.96 533.895 972.862 533.59C972.765 533.284 972.438 533.115 972.132 533.213Z" fill="white"/>
<path d="M854.3 603.728C853.994 603.826 853.826 604.153 853.923 604.458C854.021 604.764 854.347 604.933 854.653 604.835C854.959 604.738 855.128 604.411 855.03 604.105C854.933 603.8 854.606 603.631 854.3 603.728Z" fill="white"/>
<path d="M769.37 632.027C769.065 632.124 768.896 632.451 768.993 632.757C769.091 633.063 769.418 633.231 769.723 633.134C770.029 633.037 770.198 632.71 770.1 632.404C770.003 632.098 769.676 631.929 769.37 632.027Z" fill="white"/>
<path d="M875.71 540.773C875.405 540.87 875.236 541.197 875.333 541.503C875.431 541.808 875.758 541.977 876.063 541.88C876.369 541.782 876.538 541.455 876.44 541.15C876.343 540.844 876.016 540.675 875.71 540.773Z" fill="white"/>
<path opacity="0.3" d="M914.476 528.411C914.17 528.509 914.001 528.836 914.099 529.141C914.196 529.447 914.523 529.616 914.829 529.518C915.135 529.421 915.303 529.094 915.206 528.788C915.108 528.483 914.782 528.314 914.476 528.411Z" fill="white"/>
<path opacity="0.11" d="M970.828 548.266C970.522 548.364 970.353 548.691 970.45 548.996C970.548 549.302 970.875 549.471 971.18 549.373C971.486 549.276 971.655 548.949 971.558 548.643C971.46 548.338 971.133 548.169 970.828 548.266Z" fill="white"/>
<path opacity="0.3" d="M840.089 593.615C839.783 593.712 839.615 594.039 839.712 594.345C839.81 594.651 840.136 594.819 840.442 594.722C840.748 594.624 840.917 594.298 840.819 593.992C840.722 593.686 840.395 593.517 840.089 593.615Z" fill="white"/>
<path opacity="0.3" d="M862.941 533.251C862.635 533.349 862.466 533.675 862.564 533.981C862.661 534.287 862.988 534.456 863.294 534.358C863.599 534.261 863.768 533.934 863.671 533.628C863.573 533.322 863.247 533.154 862.941 533.251Z" fill="white"/>
<path opacity="0.3" d="M928.183 506.349C927.877 506.446 927.708 506.773 927.806 507.079C927.903 507.384 928.23 507.553 928.536 507.456C928.842 507.358 929.01 507.031 928.913 506.726C928.816 506.42 928.489 506.251 928.183 506.349Z" fill="white"/>
<path opacity="0.3" d="M956.07 538.329C955.764 538.427 955.595 538.754 955.693 539.059C955.79 539.365 956.117 539.534 956.423 539.436C956.728 539.339 956.897 539.012 956.8 538.706C956.702 538.401 956.375 538.232 956.07 538.329Z" fill="white"/>
<path opacity="0.3" d="M612.156 649.82C611.85 649.917 611.681 650.244 611.779 650.55C611.876 650.856 612.203 651.024 612.509 650.927C612.814 650.83 612.983 650.503 612.886 650.197C612.788 649.891 612.461 649.722 612.156 649.82Z" fill="white"/>
<path opacity="0.11" d="M708.554 644.099C708.248 644.196 708.08 644.523 708.177 644.829C708.275 645.134 708.601 645.303 708.907 645.206C709.213 645.108 709.382 644.781 709.284 644.476C709.187 644.17 708.86 644.001 708.554 644.099Z" fill="white"/>
<path opacity="0.11" d="M619.515 621.243C619.209 621.341 619.041 621.668 619.138 621.973C619.235 622.279 619.562 622.448 619.868 622.35C620.174 622.253 620.342 621.926 620.245 621.62C620.148 621.315 619.821 621.146 619.515 621.243Z" fill="white"/>
<path opacity="0.3" d="M758.033 571.584C757.421 571.779 757.083 572.434 757.278 573.045C757.473 573.657 758.127 573.995 758.739 573.8C759.351 573.605 759.689 572.951 759.494 572.339C759.299 571.727 758.645 571.389 758.033 571.584Z" fill="white"/>
<path opacity="0.11" d="M730.65 598.615C730.038 598.81 729.7 599.464 729.895 600.076C730.09 600.688 730.745 601.026 731.357 600.831C731.968 600.636 732.306 599.981 732.111 599.37C731.916 598.758 731.262 598.42 730.65 598.615Z" fill="white"/>
<path d="M737.108 617.909C736.649 618.055 736.396 618.545 736.542 619.004C736.688 619.463 737.179 619.716 737.638 619.57C738.096 619.424 738.35 618.933 738.203 618.474C738.057 618.016 737.567 617.762 737.108 617.909Z" fill="white"/>
<path d="M756.776 547.578C756.317 547.724 756.064 548.214 756.21 548.673C756.356 549.132 756.847 549.385 757.306 549.239C757.764 549.093 758.018 548.602 757.871 548.143C757.725 547.685 757.235 547.431 756.776 547.578Z" fill="white"/>
<path d="M569.393 595.125C568.934 595.271 568.681 595.762 568.827 596.22C568.973 596.679 569.464 596.933 569.923 596.786C570.382 596.64 570.635 596.15 570.489 595.691C570.342 595.232 569.852 594.979 569.393 595.125Z" fill="white"/>
<path d="M931.799 489.944C931.34 490.09 931.087 490.581 931.233 491.039C931.38 491.498 931.87 491.752 932.329 491.605C932.788 491.459 933.041 490.968 932.895 490.51C932.749 490.051 932.258 489.797 931.799 489.944Z" fill="white"/>
<path d="M1009.51 479.195C1009.05 479.341 1008.79 479.832 1008.94 480.291C1009.09 480.75 1009.58 481.003 1010.04 480.857C1010.49 480.71 1010.75 480.22 1010.6 479.761C1010.46 479.302 1009.97 479.049 1009.51 479.195Z" fill="white"/>
<path d="M1025.99 498.345C1025.53 498.491 1025.27 498.981 1025.42 499.44C1025.57 499.899 1026.06 500.152 1026.52 500.006C1026.98 499.86 1027.23 499.369 1027.08 498.91C1026.94 498.452 1026.45 498.198 1025.99 498.345Z" fill="white"/>
<path d="M760.155 598.356C759.696 598.503 759.443 598.993 759.589 599.452C759.735 599.911 760.226 600.164 760.685 600.018C761.143 599.871 761.397 599.381 761.25 598.922C761.104 598.463 760.614 598.21 760.155 598.356Z" fill="white"/>
<path d="M843.448 526.654C842.989 526.8 842.735 527.291 842.882 527.749C843.028 528.208 843.519 528.461 843.977 528.315C844.436 528.169 844.69 527.678 844.543 527.22C844.397 526.761 843.906 526.507 843.448 526.654Z" fill="white"/>
<path d="M696.303 547.338C695.844 547.485 695.591 547.975 695.737 548.434C695.884 548.893 696.374 549.146 696.833 549C697.292 548.853 697.545 548.363 697.399 547.904C697.252 547.445 696.762 547.192 696.303 547.338Z" fill="white"/>
<path d="M561.561 631.788C561.102 631.935 560.849 632.425 560.995 632.884C561.141 633.343 561.632 633.596 562.091 633.45C562.55 633.304 562.803 632.813 562.657 632.354C562.51 631.895 562.02 631.642 561.561 631.788Z" fill="white"/>
<path d="M557.983 666.482C557.524 666.628 557.271 667.119 557.417 667.577C557.563 668.036 558.054 668.29 558.513 668.143C558.971 667.997 559.225 667.506 559.078 667.048C558.932 666.589 558.442 666.335 557.983 666.482Z" fill="white"/>
<path opacity="0.3" d="M691.251 631.925C690.64 632.121 690.302 632.775 690.497 633.387C690.692 633.999 691.346 634.336 691.958 634.141C692.57 633.946 692.908 633.292 692.713 632.68C692.518 632.068 691.863 631.73 691.251 631.925Z" fill="white"/>
<path d="M703.787 671.24C703.175 671.435 702.837 672.09 703.032 672.702C703.227 673.314 703.881 673.651 704.493 673.456C705.105 673.261 705.443 672.607 705.248 671.995C705.053 671.383 704.399 671.045 703.787 671.24Z" fill="white"/>
<path d="M658.838 628.832C658.38 628.978 658.126 629.469 658.272 629.928C658.419 630.386 658.909 630.64 659.368 630.493C659.827 630.347 660.08 629.857 659.934 629.398C659.788 628.939 659.297 628.686 658.838 628.832Z" fill="white"/>
<path opacity="0.3" d="M638.869 658.994C638.257 659.189 637.919 659.843 638.114 660.455C638.309 661.067 638.963 661.405 639.575 661.21C640.187 661.015 640.525 660.36 640.33 659.748C640.135 659.137 639.481 658.799 638.869 658.994Z" fill="white"/>
<path opacity="0.3" d="M571.505 637.156C570.893 637.351 570.556 638.005 570.751 638.617C570.946 639.229 571.6 639.567 572.212 639.372C572.824 639.177 573.162 638.522 572.967 637.911C572.772 637.299 572.117 636.961 571.505 637.156Z" fill="white"/>
<path opacity="0.3" d="M635.947 615.39C635.335 615.585 634.997 616.239 635.192 616.851C635.387 617.463 636.041 617.801 636.653 617.606C637.265 617.411 637.603 616.756 637.408 616.144C637.213 615.533 636.559 615.195 635.947 615.39Z" fill="white"/>
<path opacity="0.3" d="M950.814 504.624C950.202 504.819 949.864 505.473 950.059 506.085C950.254 506.697 950.909 507.035 951.521 506.84C952.132 506.645 952.47 505.991 952.275 505.379C952.08 504.767 951.426 504.429 950.814 504.624Z" fill="white"/>
<path opacity="0.3" d="M1005.38 520.777C1004.77 520.972 1004.43 521.626 1004.63 522.238C1004.82 522.85 1005.48 523.188 1006.09 522.993C1006.7 522.798 1007.04 522.144 1006.85 521.532C1006.65 520.92 1006 520.582 1005.38 520.777Z" fill="white"/>
<path opacity="0.11" d="M599.505 646.53C598.893 646.725 598.556 647.379 598.751 647.991C598.946 648.603 599.6 648.941 600.212 648.746C600.824 648.551 601.162 647.896 600.967 647.285C600.772 646.673 600.117 646.335 599.505 646.53Z" fill="white"/>
<path opacity="0.3" d="M932.201 564.857C931.589 565.052 931.251 565.706 931.446 566.318C931.641 566.93 932.295 567.268 932.907 567.073C933.519 566.878 933.857 566.224 933.662 565.612C933.467 565 932.813 564.662 932.201 564.857Z" fill="white"/>
<path opacity="0.11" d="M950.681 571.163C950.069 571.358 949.731 572.012 949.926 572.624C950.122 573.236 950.776 573.574 951.388 573.379C952 573.184 952.338 572.529 952.142 571.917C951.947 571.306 951.293 570.968 950.681 571.163Z" fill="white"/>
<path opacity="0.3" d="M943.81 534.31C943.198 534.505 942.86 535.159 943.055 535.771C943.25 536.383 943.905 536.721 944.517 536.526C945.129 536.331 945.466 535.676 945.271 535.064C945.076 534.453 944.422 534.115 943.81 534.31Z" fill="white"/>
<path d="M909.377 545.9C908.919 546.047 908.665 546.537 908.812 546.996C908.958 547.455 909.448 547.708 909.907 547.562C910.366 547.415 910.619 546.925 910.473 546.466C910.327 546.007 909.836 545.754 909.377 545.9Z" fill="white"/>
</g>
</g>
<g opacity="0.4" clip-path="url(#clip1_148_1016)">
<g opacity="0.7">
</g>
</g>
<defs>
<filter id="filter0_f_148_1016" x="599.983" y="330.526" width="1334.58" height="1273.51" filterUnits="userSpaceOnUse" color-interpolation-filters="sRGB">
<feFlood flood-opacity="0" result="BackgroundImageFix"/>
<feBlend mode="normal" in="SourceGraphic" in2="BackgroundImageFix" result="shape"/>
<feGaussianBlur stdDeviation="137.689" result="effect1_foregroundBlur_148_1016"/>
</filter>
<filter id="filter1_f_148_1016" x="666.955" y="732.449" width="940.51" height="886.556" filterUnits="userSpaceOnUse" color-interpolation-filters="sRGB">
<feFlood flood-opacity="0" result="BackgroundImageFix"/>
<feBlend mode="normal" in="SourceGraphic" in2="BackgroundImageFix" result="shape"/>
<feGaussianBlur stdDeviation="61.96" result="effect1_foregroundBlur_148_1016"/>
</filter>
<linearGradient id="paint0_linear_148_1016" x1="1614.23" y1="832.351" x2="1232.54" y2="1278.64" gradientUnits="userSpaceOnUse">
<stop stop-color="#00D1FF"/>
<stop offset="1" stop-color="#51A2FF"/>
</linearGradient>
<clipPath id="clip0_148_1016">
<rect width="863.051" height="723.498" fill="white" transform="translate(1340.77 925.553) rotate(-164.703)"/>
</clipPath>
<clipPath id="clip1_148_1016">
<rect width="863.051" height="723.498" fill="white" transform="translate(947.465 1098.27) rotate(172.749)"/>
</clipPath>
</defs>
</svg>
