<svg width="48" height="48" viewBox="0 0 48 48" fill="none" xmlns="http://www.w3.org/2000/svg">
<rect width="48" height="48" rx="6" fill="white" fill-opacity="0.06"/>
<path d="M31.6254 8.33938C31.5383 8.25161 31.4346 8.18196 31.3205 8.13444C31.2063 8.08692 31.0838 8.06247 30.9601 8.0625C30.8364 8.06255 30.714 8.08705 30.5998 8.13462C30.4856 8.18218 30.382 8.25185 30.2949 8.33963L27.5253 11.1306C27.342 11.3152 27.0986 11.417 26.8403 11.417H21.1112C20.8527 11.417 20.6095 11.3152 20.4244 11.1291L17.7036 8.40063C17.6165 8.31325 17.5131 8.24393 17.3991 8.19663C17.2852 8.14933 17.1631 8.12499 17.0398 8.125H17.0388C16.9152 8.12516 16.7929 8.14972 16.6789 8.19728C16.5649 8.24483 16.4615 8.31445 16.3744 8.40213L8.27213 16.5642C7.90863 16.9304 7.90938 17.5215 8.27388 17.8869L10.5976 20.2151C11.0378 20.6587 11.2802 21.2488 11.2802 21.8769C11.2802 22.6897 11.5083 23.4671 11.9321 24.1367C11.0097 25.2583 11.0693 26.9287 12.1118 27.9788C12.6164 28.4873 13.2773 28.7812 13.986 28.8159C14.0185 29.5014 14.2939 30.1772 14.8124 30.6994C15.3171 31.208 15.9779 31.5019 16.6869 31.5366C16.7192 32.2222 16.9948 32.8979 17.5131 33.4202C18.3293 34.2424 19.5004 34.4497 20.4894 34.0945C20.6293 34.4993 20.8588 34.8672 21.1608 35.1709C22.2739 36.2925 24.0788 36.2928 25.1921 35.1709L25.5878 34.7724C25.8284 34.5302 26.0234 34.2466 26.1635 33.9353C27.2707 34.9136 28.9773 34.8919 30.0561 33.8049C30.5746 33.2827 30.8501 32.6069 30.8823 31.9214C31.591 31.887 32.2521 31.5927 32.7568 31.0842C33.2753 30.562 33.5507 29.8862 33.5832 29.2007C34.2917 29.1663 34.9528 28.8721 35.4574 28.3638C36.4941 27.3196 36.5593 25.6616 35.6531 24.5401C36.3134 23.6096 36.6711 22.499 36.6711 21.3328C36.6711 21.0596 36.7807 20.7925 36.9719 20.5999L39.7278 17.8225C40.0905 17.4571 40.0905 16.8672 39.7278 16.5017L31.6254 8.33938ZM13.4426 25.2581L14.7929 23.8977C14.8824 23.8069 14.989 23.7348 15.1066 23.6856C15.2242 23.6364 15.3504 23.6111 15.4778 23.6111C15.6053 23.6111 15.7315 23.6364 15.8491 23.6856C15.9667 23.7348 16.0733 23.8069 16.1628 23.8977C16.5461 24.2837 16.5461 24.9116 16.1628 25.2974L14.8124 26.658C14.723 26.7488 14.6163 26.8208 14.4987 26.87C14.3811 26.9192 14.255 26.9445 14.1275 26.9445C14 26.9445 13.8739 26.9192 13.7563 26.87C13.6387 26.8208 13.5321 26.7488 13.4426 26.658C13.0595 26.272 13.0595 25.6441 13.4426 25.258V25.2581ZM16.1433 27.9788L18.8439 25.2581C18.9334 25.1673 19.04 25.0951 19.1576 25.0459C19.2752 24.9967 19.4015 24.9714 19.529 24.9714C19.6565 24.9714 19.7827 24.9967 19.9003 25.0459C20.0179 25.0951 20.1246 25.1673 20.2141 25.2581C20.5971 25.6441 20.5971 26.272 20.2141 26.6579C19.2514 27.6277 19.2001 27.6792 17.5131 29.3787C17.4236 29.4694 17.317 29.5415 17.1994 29.5907C17.0818 29.6398 16.9556 29.6651 16.8281 29.6651C16.7007 29.6651 16.5745 29.6397 16.4569 29.5905C16.3393 29.5413 16.2327 29.4692 16.1433 29.3784C15.7602 28.9927 15.7602 28.3647 16.1433 27.9788ZM18.8439 32.0991C18.4609 31.7134 18.4609 31.0854 18.8439 30.6994L20.1943 29.3391C20.2838 29.2484 20.3904 29.1763 20.508 29.1271C20.6256 29.0779 20.7518 29.0526 20.8793 29.0526C21.0068 29.0526 21.133 29.0779 21.2506 29.1271C21.3682 29.1763 21.4749 29.2484 21.5644 29.3391C21.9181 29.6956 21.9445 30.2578 21.6447 30.646C21.5622 30.7222 21.685 30.5996 20.2141 32.0991C20.1246 32.19 20.018 32.2621 19.9003 32.3114C19.7827 32.3606 19.6565 32.386 19.529 32.386C19.4015 32.386 19.2753 32.3606 19.1577 32.3114C19.04 32.2621 18.9333 32.19 18.8439 32.0991ZM24.2573 33.4514L23.8615 33.8499C23.772 33.9407 23.6654 34.0128 23.5478 34.062C23.4302 34.1113 23.304 34.1366 23.1766 34.1366C23.0491 34.1366 22.9229 34.1113 22.8053 34.062C22.6877 34.0128 22.5811 33.9407 22.4916 33.8499C22.1425 33.4983 22.1125 32.9463 22.3996 32.5591C22.9143 32.0388 22.8891 32.0696 22.9787 31.9714C23.3615 31.6704 23.9081 31.7002 24.2573 32.0518C24.6404 32.4377 24.6401 33.0657 24.2573 33.4514ZM34.1269 27.0427C34.0374 27.1335 33.9307 27.2055 33.8131 27.2547C33.6955 27.3039 33.5693 27.3293 33.4418 27.3293C33.3143 27.3293 33.1881 27.3039 33.0705 27.2547C32.9529 27.2055 32.8463 27.1335 32.7568 27.0427L31.0109 25.2839C30.6462 24.9165 30.0524 24.9143 29.685 25.2791C29.3176 25.6438 29.3154 26.2373 29.6801 26.6047L31.4262 28.3635C31.8093 28.7495 31.8093 29.3774 31.4262 29.7632C31.3367 29.854 31.2301 29.9261 31.1125 29.9754C30.9948 30.0246 30.8686 30.0499 30.7411 30.0499C30.6136 30.0499 30.4874 30.0246 30.3698 29.9754C30.2522 29.9261 30.1455 29.854 30.0561 29.7632L28.3103 28.0044C27.9453 27.6369 27.3518 27.6348 26.9843 27.9995C26.6169 28.3643 26.6147 28.958 26.9794 29.3254L28.7253 31.0842C29.1086 31.4702 29.1086 32.0981 28.7253 32.4839C28.6358 32.5747 28.5291 32.6468 28.4115 32.696C28.2939 32.7453 28.1677 32.7706 28.0402 32.7706C27.9127 32.7706 27.7865 32.7453 27.6689 32.696C27.5513 32.6468 27.4447 32.5747 27.3552 32.4839C25.5173 30.6474 25.6054 30.6877 25.4204 30.5759C24.9428 30.1648 24.3513 29.9266 23.7209 29.8943C23.6869 29.2114 23.4115 28.5386 22.8953 28.0181C22.6302 27.7514 22.3222 27.5439 21.987 27.4018C22.6228 26.3074 22.4755 24.8748 21.5446 23.9373C20.5905 22.9761 19.1633 22.8596 18.099 23.4829C17.9576 23.1446 17.752 22.8369 17.4936 22.5769C16.3803 21.4553 14.5756 21.4553 13.4621 22.5769L13.3127 22.7275C13.2083 22.4561 13.1549 22.1677 13.1552 21.8769C13.1552 20.7505 12.7194 19.6914 11.9264 18.8923L10.2602 17.2229L17.0412 10.3916L19.0954 12.4514C19.5544 12.9138 20.143 13.1982 20.779 13.2719L16.5896 18.299C16.2583 18.6969 16.3119 19.288 16.7096 19.6193C17.6713 20.4208 18.8876 20.7999 20.1344 20.6867C21.3811 20.5734 22.5092 19.9814 23.3117 19.0183C23.6474 18.6154 24.2121 18.4941 24.6854 18.7226C25.6516 19.1894 26.7133 19.3598 27.7578 19.2265L34.1269 25.6427C34.51 26.0287 34.51 26.6567 34.1269 27.0427ZM35.6413 19.2788C35.0961 19.8279 34.7961 20.5574 34.7961 21.3328C34.7961 21.9871 34.6264 22.6145 34.3095 23.1652L29.7497 18.572C30.6818 18.0534 31.4463 17.2739 31.9533 16.3076C32.1938 15.8491 32.0171 15.2825 31.5586 15.042C31.1001 14.8012 30.5334 14.978 30.2929 15.4365C29.7841 16.4062 28.9108 17.0534 27.9326 17.2932C27.8896 17.2998 27.8469 17.3091 27.8051 17.3217C27.0534 17.4773 26.2475 17.395 25.5012 17.0344C24.8953 16.7406 24.2085 16.6583 23.5504 16.8006C22.8922 16.9428 22.3007 17.3015 21.8703 17.8193C21.3893 18.3962 20.7126 18.7514 19.9648 18.8196C19.5398 18.8581 19.1208 18.8012 18.7321 18.657L23.0722 13.4482C23.4123 13.3445 23.7648 13.2839 24.1203 13.2839H26.8403C27.602 13.2839 28.3178 12.9934 28.8561 12.4514L30.9604 10.3308L37.7416 17.1621L35.6413 19.2788Z" fill="url(#paint0_linear_293_3048)"/>
<defs>
<linearGradient id="paint0_linear_293_3048" x1="36.5089" y1="15.549" x2="22.3264" y2="34.7779" gradientUnits="userSpaceOnUse">
<stop stop-color="#00D1FF"/>
<stop offset="1" stop-color="#51A2FF"/>
</linearGradient>
</defs>
</svg>
