<svg width="48" height="48" viewBox="0 0 48 48" fill="none" xmlns="http://www.w3.org/2000/svg">
<rect width="48" height="48" rx="6" fill="white" fill-opacity="0.06"/>
<path d="M29.9862 14.5771H16.9752C16.7365 14.5771 16.5076 14.672 16.3388 14.8408C16.17 15.0095 16.0752 15.2385 16.0752 15.4771C16.0752 15.7158 16.17 15.9448 16.3388 16.1135C16.5076 16.2823 16.7365 16.3771 16.9752 16.3771H29.9872C30.2259 16.377 30.4548 16.2821 30.6234 16.1132C30.7921 15.9443 30.8868 15.7153 30.8867 15.4766C30.8866 15.238 30.7916 15.0091 30.6227 14.8404C30.4539 14.6717 30.2249 14.577 29.9862 14.5771ZM30.8862 20.5511C30.8862 20.3125 30.7914 20.0835 30.6226 19.9148C30.4538 19.746 30.2249 19.6511 29.9862 19.6511H16.9752C16.7365 19.6511 16.5076 19.746 16.3388 19.9148C16.17 20.0835 16.0752 20.3125 16.0752 20.5511C16.0752 20.7898 16.17 21.0188 16.3388 21.1875C16.5076 21.3563 16.7365 21.4511 16.9752 21.4511H29.9872C30.2257 21.4509 30.4544 21.3559 30.6229 21.1872C30.7915 21.0184 30.8862 20.7897 30.8862 20.5511ZM16.9752 24.7261C16.7365 24.7261 16.5076 24.821 16.3388 24.9898C16.17 25.1585 16.0752 25.3875 16.0752 25.6261C16.0752 25.8648 16.17 26.0938 16.3388 26.2625C16.5076 26.4313 16.7365 26.5261 16.9752 26.5261H23.5292C23.7679 26.5261 23.9968 26.4313 24.1656 26.2625C24.3344 26.0938 24.4292 25.8648 24.4292 25.6261C24.4292 25.3875 24.3344 25.1585 24.1656 24.9898C23.9968 24.821 23.7679 24.7261 23.5292 24.7261H16.9752Z" fill="url(#paint0_linear_293_3021)"/>
<path d="M19.3118 37.1001H13.7428C13.3738 37.0996 13.02 36.9527 12.7591 36.6918C12.4981 36.4309 12.3513 36.0771 12.3508 35.7081V12.2921C12.3508 11.5241 12.9758 10.9001 13.7428 10.9001H33.2188C33.9858 10.9001 34.6108 11.5251 34.6108 12.2921V20.8371C34.6108 21.0758 34.7056 21.3047 34.8744 21.4735C35.0432 21.6423 35.2721 21.7371 35.5108 21.7371C35.7495 21.7371 35.9784 21.6423 36.1472 21.4735C36.316 21.3047 36.4108 21.0758 36.4108 20.8371V12.2921C36.41 11.4459 36.0736 10.6347 35.4753 10.0362C34.8771 9.43783 34.0659 9.10116 33.2198 9.1001H13.7428C12.8965 9.10116 12.0853 9.43779 11.4869 10.0362C10.8885 10.6346 10.5518 11.4459 10.5508 12.2921V35.7081C10.5518 36.5543 10.8885 37.3656 11.4869 37.964C12.0853 38.5624 12.8965 38.899 13.7428 38.9001H19.3118C19.5505 38.9001 19.7794 38.8053 19.9482 38.6365C20.117 38.4677 20.2118 38.2388 20.2118 38.0001C20.2118 37.7614 20.117 37.5325 19.9482 37.3637C19.7794 37.1949 19.5505 37.1001 19.3118 37.1001Z" fill="url(#paint1_linear_293_3021)"/>
<path d="M36.4661 24.9142C35.8374 24.2866 34.9854 23.9341 34.0971 23.9341C33.2088 23.9341 32.3567 24.2866 31.7281 24.9142L23.4531 33.1892C23.1919 33.4494 23.0185 33.7847 22.9571 34.1482L22.5051 36.8312C22.4581 37.1101 22.4785 37.3961 22.5646 37.6655C22.6506 37.9349 22.7998 38.1798 22.9998 38.3798C23.1997 38.5798 23.4445 38.7291 23.7138 38.8153C23.9832 38.9015 24.2692 38.922 24.5481 38.8752L27.2291 38.4222C27.5951 38.3612 27.9281 38.1902 28.1901 37.9272L36.4651 29.6522C37.0926 29.0236 37.4451 28.1717 37.4453 27.2834C37.4455 26.3952 37.0933 25.5431 36.4661 24.9142ZM26.9321 36.6472L24.2801 37.1302L24.7251 34.4612L30.6801 28.5062L32.8741 30.7002L26.9321 36.6472ZM35.1931 28.3792L34.1461 29.4272L31.9521 27.2332L33.0001 26.1852C33.3021 25.8832 33.7001 25.7322 34.0971 25.7322C34.4038 25.732 34.7038 25.8229 34.9589 25.9932C35.214 26.1636 35.4128 26.4058 35.5301 26.6893C35.6475 26.9727 35.6781 27.2846 35.6181 27.5854C35.5581 27.8862 35.4102 28.1625 35.1931 28.3792Z" fill="url(#paint2_linear_293_3021)"/>
<defs>
<linearGradient id="paint0_linear_293_3021" x1="29.2709" y1="17.7778" x2="23.3649" y2="26.4471" gradientUnits="userSpaceOnUse">
<stop stop-color="#00D1FF"/>
<stop offset="1" stop-color="#51A2FF"/>
</linearGradient>
<linearGradient id="paint1_linear_293_3021" x1="33.5897" y1="17.0822" x2="17.7681" y2="33.3411" gradientUnits="userSpaceOnUse">
<stop stop-color="#00D1FF"/>
<stop offset="1" stop-color="#51A2FF"/>
</linearGradient>
<linearGradient id="paint2_linear_293_3021" x1="35.8128" y1="27.9427" x2="27.9764" y2="37.2221" gradientUnits="userSpaceOnUse">
<stop stop-color="#00D1FF"/>
<stop offset="1" stop-color="#51A2FF"/>
</linearGradient>
</defs>
</svg>
