<svg width="48" height="48" viewBox="0 0 48 48" fill="none" xmlns="http://www.w3.org/2000/svg">
<rect width="48" height="48" rx="6" fill="white" fill-opacity="0.06"/>
<path d="M16.0012 20.8002C13.3545 20.8002 11.2012 18.6469 11.2012 16.0002C11.2012 13.3535 13.3545 11.2002 16.0012 11.2002C18.6479 11.2002 20.8012 13.3535 20.8012 16.0002C20.8012 18.6469 18.6479 20.8002 16.0012 20.8002ZM16.0012 13.3336C14.5301 13.3336 13.3346 14.5301 13.3346 16.0002C13.3346 17.4703 14.5301 18.6668 16.0012 18.6668C17.4722 18.6668 18.6677 17.4703 18.6677 16.0002C18.6677 14.5301 17.4722 13.3336 16.0012 13.3336ZM32.0012 36.8002C29.3545 36.8002 27.2012 34.6469 27.2012 32.0002C27.2012 29.3535 29.3545 27.2002 32.0012 27.2002C34.6479 27.2002 36.8012 29.3535 36.8012 32.0002C36.8012 34.6469 34.6479 36.8002 32.0012 36.8002ZM32.0012 29.3336C30.5301 29.3336 29.3346 30.5292 29.3346 32.0002C29.3346 33.4712 30.5301 34.6668 32.0012 34.6668C33.4722 34.6668 34.6677 33.4712 34.6677 32.0002C34.6677 30.5292 33.4722 29.3336 32.0012 29.3336Z" fill="url(#paint0_linear_293_3031)"/>
<path d="M18.1346 36.8002C14.3116 36.8002 11.2012 33.6898 11.2012 29.8668C11.2012 26.044 14.3116 22.9336 18.1346 22.9336H22.9346V18.1336C22.9346 14.3106 26.045 11.2002 29.8677 11.2002C33.6908 11.2002 36.8012 14.3106 36.8012 18.1336C36.8012 21.9567 33.6908 25.0671 29.8677 25.0671H25.0677V29.8671C25.0677 33.6898 21.9573 36.8002 18.1346 36.8002ZM18.1346 25.0668C15.4879 25.0668 13.3346 27.22 13.3346 29.8668C13.3346 32.5135 15.4879 34.6668 18.1346 34.6668C20.7813 34.6668 22.9346 32.5135 22.9346 29.8668V25.0668H18.1346ZM25.0677 22.9336H29.8677C32.5145 22.9336 34.6677 20.7804 34.6677 18.1336C34.6677 15.4869 32.5145 13.3336 29.8677 13.3336C27.221 13.3336 25.0677 15.4869 25.0677 18.1336V22.9336Z" fill="url(#paint1_linear_293_3031)"/>
<defs>
<linearGradient id="paint0_linear_293_3031" x1="34.0084" y1="18.0573" x2="20.6038" y2="33.9313" gradientUnits="userSpaceOnUse">
<stop stop-color="#00D1FF"/>
<stop offset="1" stop-color="#51A2FF"/>
</linearGradient>
<linearGradient id="paint1_linear_293_3031" x1="34.0084" y1="18.0573" x2="20.6038" y2="33.9313" gradientUnits="userSpaceOnUse">
<stop stop-color="#00D1FF"/>
<stop offset="1" stop-color="#51A2FF"/>
</linearGradient>
</defs>
</svg>
