<svg width="48" height="48" viewBox="0 0 48 48" fill="none" xmlns="http://www.w3.org/2000/svg">
<rect width="48" height="48" rx="6" fill="white" fill-opacity="0.06"/>
<path d="M37.5012 30.868H36.5697V29.6919C36.5697 26.9071 34.3042 24.6417 31.5195 24.6417H25.1469V20.2921H27.9406C29.3184 20.2921 30.4394 19.1712 30.4394 17.7933V11.7278C30.4394 10.35 29.3184 9.229 27.9406 9.229H20.4764C19.0986 9.229 17.9777 10.3499 17.9777 11.7278V17.7933C17.9777 19.1711 19.0986 20.2921 20.4764 20.2921H23.2702V24.6416H16.5221C13.7374 24.6416 11.472 26.9071 11.472 29.6918V30.8679H10.4988C9.12094 30.868 8 31.9889 8 33.3668V36.2722C8 37.65 9.12094 38.7709 10.4988 38.7709H14.3217C15.6995 38.7709 16.8204 37.65 16.8204 36.2722V33.3668C16.8204 31.9889 15.6995 30.868 14.3217 30.868H13.3486V29.6919C13.3486 27.9421 14.7722 26.5184 16.5221 26.5184H23.2701V30.868H22.2971C20.9192 30.868 19.7983 31.9889 19.7983 33.3668V36.2722C19.7983 37.65 20.9192 38.7709 22.2971 38.7709H26.1199C27.4978 38.7709 28.6187 37.65 28.6187 36.2722V33.3668C28.6187 31.9889 27.4978 30.868 26.1199 30.868H25.1469V26.5184H31.5196C33.2695 26.5184 34.6931 27.9421 34.6931 29.6919V30.868H33.6783C32.3005 30.868 31.1796 31.9889 31.1796 33.3668V36.2722C31.1796 37.65 32.3005 38.7709 33.6783 38.7709H37.5012C38.8791 38.7709 40 37.65 40 36.2722V33.3668C40 31.9889 38.8791 30.868 37.5012 30.868ZM14.3218 32.7447C14.6648 32.7447 14.9438 33.0238 14.9438 33.3668V36.2722C14.9438 36.6152 14.6648 36.8943 14.3218 36.8943H10.4989C10.1559 36.8943 9.87675 36.6152 9.87675 36.2722V33.3668C9.87675 33.0238 10.1559 32.7447 10.4989 32.7447H14.3218ZM26.12 32.7447C26.463 32.7447 26.7421 33.0238 26.7421 33.3668V36.2722C26.7421 36.6152 26.463 36.8943 26.12 36.8943H22.2971C21.9541 36.8943 21.675 36.6152 21.675 36.2722V33.3668C21.675 33.0238 21.9541 32.7447 22.2971 32.7447H26.12ZM20.4764 18.4154C20.1334 18.4154 19.8544 18.1363 19.8544 17.7933V11.7278C19.8544 11.3848 20.1334 11.1057 20.4764 11.1057H27.9406C28.2836 11.1057 28.5626 11.3848 28.5626 11.7278V17.7933C28.5626 18.1363 28.2836 18.4154 27.9406 18.4154H20.4764V18.4154ZM38.1233 36.2723C38.1233 36.6153 37.8442 36.8943 37.5012 36.8943H33.6783C33.3353 36.8943 33.0562 36.6153 33.0562 36.2723V33.3669C33.0562 33.0239 33.3353 32.7448 33.6783 32.7448H37.5012C37.8442 32.7448 38.1233 33.0238 38.1233 33.3669V36.2723Z" fill="url(#paint0_linear_293_3040)"/>
<defs>
<linearGradient id="paint0_linear_293_3040" x1="36.5091" y1="17.142" x2="21.2929" y2="36.6605" gradientUnits="userSpaceOnUse">
<stop stop-color="#00D1FF"/>
<stop offset="1" stop-color="#51A2FF"/>
</linearGradient>
</defs>
</svg>
