<svg width="48" height="48" viewBox="0 0 48 48" fill="none" xmlns="http://www.w3.org/2000/svg">
<rect width="48" height="48" rx="6" fill="white" fill-opacity="0.06"/>
<path d="M28.0301 22.0846C28.0301 21.8459 27.9353 21.617 27.7665 21.4482C27.5977 21.2794 27.3688 21.1846 27.1301 21.1846H17.2301C16.9914 21.1846 16.7625 21.2794 16.5937 21.4482C16.4249 21.617 16.3301 21.8459 16.3301 22.0846C16.3301 22.3233 16.4249 22.5522 16.5937 22.721C16.7625 22.8897 16.9914 22.9846 17.2301 22.9846H27.1301C27.2483 22.9846 27.3653 22.9613 27.4745 22.9161C27.5837 22.8708 27.6829 22.8045 27.7665 22.721C27.8501 22.6374 27.9164 22.5382 27.9616 22.429C28.0068 22.3198 28.0301 22.2028 28.0301 22.0846ZM17.2281 25.7296C16.9894 25.7296 16.7605 25.8244 16.5917 25.9932C16.4229 26.162 16.3281 26.3909 16.3281 26.6296C16.3281 26.8683 16.4229 27.0972 16.5917 27.266C16.7605 27.4347 16.9894 27.5296 17.2281 27.5296H22.4771C22.7158 27.5296 22.9447 27.4347 23.1135 27.266C23.2823 27.0972 23.3771 26.8683 23.3771 26.6296C23.3771 26.3909 23.2823 26.162 23.1135 25.9932C22.9447 25.8244 22.7158 25.7296 22.4771 25.7296H17.2281Z" fill="url(#paint0_linear_293_4614)"/>
<path d="M33.9616 22.1338C33.7229 22.1338 33.4939 22.2286 33.3252 22.3974C33.1564 22.5662 33.0616 22.7951 33.0616 23.0338V30.3128C33.0608 30.9676 32.8003 31.5954 32.3372 32.0584C31.8742 32.5215 31.2464 32.782 30.5916 32.7828H24.5716C24.3763 32.7825 24.1864 32.8461 24.0306 32.9638L18.8326 36.8728C18.7882 36.9084 18.734 36.9297 18.6773 36.934C18.6205 36.9383 18.5638 36.9253 18.5146 36.8968C18.4637 36.8725 18.4211 36.8337 18.3921 36.7853C18.3631 36.7369 18.349 36.6811 18.3516 36.6248L18.4516 33.7148C18.4554 33.5941 18.4351 33.474 18.3917 33.3614C18.3483 33.2488 18.2827 33.146 18.1989 33.0592C18.1151 32.9724 18.0147 32.9033 17.9036 32.856C17.7926 32.8087 17.6732 32.7841 17.5526 32.7838H13.3716C12.7166 32.7832 12.0887 32.5228 11.6256 32.0597C11.1625 31.5966 10.9021 30.9687 10.9016 30.3138V18.4138C10.901 17.7577 11.1608 17.1282 11.6239 16.6634C12.0869 16.1987 12.7155 15.9366 13.3716 15.9348H24.4616C24.7003 15.9348 24.9292 15.8399 25.098 15.6712C25.2667 15.5024 25.3616 15.2735 25.3616 15.0348C25.3616 14.7961 25.2667 14.5672 25.098 14.3984C24.9292 14.2296 24.7003 14.1348 24.4616 14.1348H13.3716C12.2382 14.1374 11.1521 14.5895 10.3516 15.3919C9.55111 16.1942 9.10156 17.2814 9.10156 18.4148V30.3138C9.10289 31.4459 9.55315 32.5314 10.3536 33.332C11.1541 34.1327 12.2394 34.5832 13.3716 34.5848H16.6206L16.5526 36.5668C16.5388 36.9626 16.6379 37.3541 16.8383 37.6957C17.0388 38.0373 17.3323 38.3148 17.6846 38.4958C17.9845 38.653 18.318 38.7353 18.6566 38.7358C19.0996 38.7358 19.5386 38.5928 19.9126 38.3138L24.8716 34.5848H30.5906C31.7227 34.5832 32.808 34.1327 33.6085 33.332C34.409 32.5314 34.8592 31.4459 34.8606 30.3138V23.0348C34.8608 22.9165 34.8378 22.7994 34.7927 22.6901C34.7476 22.5808 34.6815 22.4815 34.598 22.3978C34.5145 22.3141 34.4153 22.2477 34.3061 22.2024C34.1969 22.1571 34.0798 22.1338 33.9616 22.1338Z" fill="url(#paint1_linear_293_4614)"/>
<path d="M38.8257 13.5613C38.7472 13.3169 38.6073 13.0966 38.4195 12.9216C38.2316 12.7465 38.0021 12.6225 37.7527 12.5613L35.4527 11.9883L34.1967 9.97834C33.6397 9.08434 32.1857 9.08634 31.6297 9.97834L30.3737 11.9883L28.0737 12.5613C27.5647 12.6873 27.1627 13.0613 27.0007 13.5613C26.8387 14.0613 26.9427 14.6003 27.2807 15.0033L28.8047 16.8173L28.6387 19.1813C28.6199 19.4375 28.667 19.6943 28.7755 19.9271C28.884 20.1599 29.0504 20.3611 29.2587 20.5113C29.4662 20.6629 29.7089 20.7589 29.9639 20.7902C30.2189 20.8216 30.4777 20.7872 30.7157 20.6903L32.9137 19.8023L35.1107 20.6903C35.5977 20.8883 36.1417 20.8203 36.5677 20.5123C36.9927 20.2033 37.2247 19.7063 37.1887 19.1813L37.0227 16.8173L38.5467 15.0023C38.8837 14.6003 38.9887 14.0613 38.8257 13.5613ZM35.4097 15.9383C35.2594 16.1175 35.1848 16.3481 35.2017 16.5813L35.3617 18.8513L33.2517 17.9983C33.0356 17.9105 32.7938 17.9105 32.5777 17.9983L30.4687 18.8513L30.6277 16.5813C30.6435 16.3483 30.569 16.118 30.4197 15.9383L28.9567 14.1963L31.1647 13.6453C31.3908 13.5889 31.5862 13.4469 31.7097 13.2493L32.9157 11.3203L34.1217 13.2493C34.2457 13.4473 34.4407 13.5893 34.6667 13.6453L36.8747 14.1963L35.4097 15.9383Z" fill="url(#paint2_linear_293_4614)"/>
<defs>
<linearGradient id="paint0_linear_293_4614" x1="27.135" y1="23.1019" x2="24.0795" y2="28.588" gradientUnits="userSpaceOnUse">
<stop stop-color="#00D1FF"/>
<stop offset="1" stop-color="#51A2FF"/>
</linearGradient>
<linearGradient id="paint1_linear_293_4614" x1="32.8902" y1="21.5688" x2="18.9582" y2="35.7703" gradientUnits="userSpaceOnUse">
<stop stop-color="#00D1FF"/>
<stop offset="1" stop-color="#51A2FF"/>
</linearGradient>
<linearGradient id="paint2_linear_293_4614" x1="37.9851" y1="12.7818" x2="31.4755" y2="19.3846" gradientUnits="userSpaceOnUse">
<stop stop-color="#00D1FF"/>
<stop offset="1" stop-color="#51A2FF"/>
</linearGradient>
</defs>
</svg>
