<svg width="48" height="48" viewBox="0 0 48 48" fill="none" xmlns="http://www.w3.org/2000/svg">
<rect width="48" height="48" rx="6" fill="white" fill-opacity="0.06"/>
<g clip-path="url(#clip0_293_4624)">
<path d="M39.8848 33.1155L38.0262 27.7065C38.9221 25.8752 39.3955 23.8384 39.3987 21.7891C39.4042 18.2258 38.0256 14.8566 35.5167 12.3022C33.0073 9.74735 29.6634 8.30916 26.1009 8.25272C22.4069 8.19435 18.9346 9.59947 16.3242 12.2098C13.8071 14.7269 12.4109 18.0452 12.3668 21.5912C9.88588 23.4591 8.42157 26.3713 8.42638 29.4818C8.4287 30.9375 8.75632 32.3844 9.37713 33.6929L8.09695 37.4184C7.87688 38.0588 8.03763 38.7542 8.51651 39.233C8.85351 39.5701 9.29782 39.7495 9.75476 39.7495C9.94701 39.7495 10.1415 39.7178 10.3312 39.6526L14.0568 38.3724C15.3652 38.9932 16.8121 39.3209 18.2678 39.3232H18.2833C21.4401 39.323 24.3745 37.821 26.2356 35.2793C28.1723 35.2283 30.0884 34.7595 31.8208 33.912L37.2298 35.7707C37.4501 35.8467 37.6816 35.8856 37.9147 35.8859C38.4577 35.8859 38.9857 35.6726 39.3863 35.272C39.9553 34.7029 40.1463 33.8766 39.8848 33.1155ZM18.2831 37.4184H18.2707C16.9823 37.4165 15.7029 37.0989 14.5709 36.5C14.4558 36.4391 14.3294 36.4025 14.1996 36.3923C14.0698 36.3822 13.9392 36.3988 13.8161 36.4411L9.99588 37.7538L11.3086 33.9337C11.3509 33.8105 11.3675 33.68 11.3574 33.5501C11.3472 33.4203 11.3106 33.2939 11.2497 33.1788C10.6508 32.0468 10.3332 30.7674 10.3312 29.479C10.328 27.4065 11.1342 25.4422 12.544 23.9713C13.0045 26.7786 14.3424 29.3655 16.4163 31.4025C18.4749 33.4244 21.0625 34.7118 23.8545 35.1327C22.3803 36.5857 20.393 37.4184 18.2831 37.4184ZM38.0393 33.9251C37.9851 33.9793 37.9208 33.994 37.8486 33.9692L32.0581 31.9794C31.9349 31.9371 31.8044 31.9205 31.6746 31.9306C31.5447 31.9407 31.4184 31.9774 31.3033 32.0383C29.6499 32.9129 27.7817 33.3768 25.9003 33.3797H25.8823C19.5784 33.3797 14.3713 28.2588 14.2714 21.9563C14.2211 18.7823 15.4285 15.7992 17.6711 13.5567C19.9136 11.3141 22.8972 10.1072 26.0708 10.1572C32.3793 10.2572 37.5037 15.4739 37.4939 21.7861C37.491 23.6675 37.0272 25.5358 36.1526 27.189C36.0917 27.3041 36.0551 27.4305 36.045 27.5603C36.0348 27.6901 36.0514 27.8207 36.0938 27.9438L38.0834 33.7344C38.1083 33.8069 38.0934 33.871 38.0393 33.9251Z" fill="url(#paint0_linear_293_4624)"/>
<path d="M31.5577 16.7197H20.2102C19.6842 16.7197 19.2579 17.1462 19.2579 17.6721C19.2579 18.1981 19.6843 18.6245 20.2102 18.6245H31.5577C32.0837 18.6245 32.5101 18.198 32.5101 17.6721C32.5101 17.1462 32.0837 16.7197 31.5577 16.7197ZM31.5577 20.6367H20.2102C19.6842 20.6367 19.2579 21.0631 19.2579 21.589C19.2579 22.115 19.6843 22.5414 20.2102 22.5414H31.5577C32.0837 22.5414 32.5101 22.115 32.5101 21.589C32.5101 21.0631 32.0837 20.6367 31.5577 20.6367ZM27.1897 24.5535H20.2102C19.6842 24.5535 19.2578 24.9799 19.2578 25.5059C19.2578 26.0319 19.6842 26.4582 20.2102 26.4582H27.1897C27.7157 26.4582 28.1421 26.0318 28.1421 25.5059C28.1421 24.9799 27.7157 24.5535 27.1897 24.5535Z" fill="url(#paint1_linear_293_4624)"/>
</g>
<defs>
<linearGradient id="paint0_linear_293_4624" x1="37.5522" y1="17.7694" x2="19.7118" y2="35.4138" gradientUnits="userSpaceOnUse">
<stop stop-color="#00D1FF"/>
<stop offset="1" stop-color="#51A2FF"/>
</linearGradient>
<linearGradient id="paint1_linear_293_4624" x1="31.4964" y1="19.6626" x2="26.1915" y2="26.6904" gradientUnits="userSpaceOnUse">
<stop stop-color="#00D1FF"/>
<stop offset="1" stop-color="#51A2FF"/>
</linearGradient>
<clipPath id="clip0_293_4624">
<rect width="32" height="32" fill="white" transform="translate(8 8)"/>
</clipPath>
</defs>
</svg>
