<svg width="48" height="48" viewBox="0 0 48 48" fill="none" xmlns="http://www.w3.org/2000/svg">
<rect width="48" height="48" rx="6" fill="white" fill-opacity="0.06"/>
<path d="M16 20.9998C16 20.7346 16.1054 20.4802 16.2929 20.2927C16.4804 20.1052 16.7348 19.9998 17 19.9998H23C23.2652 19.9998 23.5196 20.1052 23.7071 20.2927C23.8946 20.4802 24 20.7346 24 20.9998C24 21.265 23.8946 21.5194 23.7071 21.7069C23.5196 21.8944 23.2652 21.9998 23 21.9998H17C16.7348 21.9998 16.4804 21.8944 16.2929 21.7069C16.1054 21.5194 16 21.265 16 20.9998ZM23 23.9998H17C16.7348 23.9998 16.4804 24.1052 16.2929 24.2927C16.1054 24.4802 16 24.7346 16 24.9998C16 25.265 16.1054 25.5194 16.2929 25.7069C16.4804 25.8944 16.7348 25.9998 17 25.9998H23C23.2652 25.9998 23.5196 25.8944 23.7071 25.7069C23.8946 25.5194 24 25.265 24 24.9998C24 24.7346 23.8946 24.4802 23.7071 24.2927C23.5196 24.1052 23.2652 23.9998 23 23.9998ZM23 27.9998H17C16.7348 27.9998 16.4804 28.1052 16.2929 28.2927C16.1054 28.4802 16 28.7346 16 28.9998C16 29.265 16.1054 29.5194 16.2929 29.7069C16.4804 29.8944 16.7348 29.9998 17 29.9998H23C23.2652 29.9998 23.5196 29.8944 23.7071 29.7069C23.8946 29.5194 24 29.265 24 28.9998C24 28.7346 23.8946 28.4802 23.7071 28.2927C23.5196 28.1052 23.2652 27.9998 23 27.9998ZM23 31.9998H17C16.7348 31.9998 16.4804 32.1052 16.2929 32.2927C16.1054 32.4802 16 32.7346 16 32.9998C16 33.265 16.1054 33.5194 16.2929 33.7069C16.4804 33.8944 16.7348 33.9998 17 33.9998H23C23.2652 33.9998 23.5196 33.8944 23.7071 33.7069C23.8946 33.5194 24 33.265 24 32.9998C24 32.7346 23.8946 32.4802 23.7071 32.2927C23.5196 32.1052 23.2652 31.9998 23 31.9998ZM38 36.9998C38 37.265 37.8946 37.5194 37.7071 37.7069C37.5196 37.8944 37.2652 37.9998 37 37.9998H11C10.7348 37.9998 10.4804 37.8944 10.2929 37.7069C10.1054 37.5194 10 37.265 10 36.9998C10 36.7346 10.1054 36.4802 10.2929 36.2927C10.4804 36.1052 10.7348 35.9998 11 35.9998H12V17.6178C11.9988 17.2462 12.1016 16.8816 12.2969 16.5654C12.4922 16.2493 12.7721 15.9941 13.105 15.8288L25.105 9.8288C25.731 9.5168 26.457 9.5488 27.051 9.9158C27.645 10.2828 27.999 10.9188 27.999 11.6178V18.9998H33.999C35.102 18.9998 35.999 19.8968 35.999 20.9998V35.9998H36.999C37.2642 35.9998 37.5186 36.1052 37.7061 36.2927C37.8936 36.4802 38 36.7346 38 36.9998ZM28 20.9998V35.9998H34V20.9998H28ZM14 35.9998H26V11.6178L14 17.6178V35.9998Z" fill="url(#paint0_linear_293_1649)"/>
<defs>
<linearGradient id="paint0_linear_293_1649" x1="35.8582" y1="18.193" x2="19.794" y2="33.6201" gradientUnits="userSpaceOnUse">
<stop stop-color="#00D1FF"/>
<stop offset="1" stop-color="#51A2FF"/>
</linearGradient>
</defs>
</svg>
