<svg width="48" height="48" viewBox="0 0 48 48" fill="none" xmlns="http://www.w3.org/2000/svg">
<rect width="48" height="48" rx="6" fill="white" fill-opacity="0.06"/>
<path d="M39.8246 23.4541C38.1411 21.1044 34.4429 17.2703 30.3135 15.2479C28.1994 14.2125 26.0962 13.6875 24.0625 13.6875C22.0296 13.6875 19.9206 14.2121 17.7941 15.2468C13.9559 17.1144 10.1565 20.7388 8.18019 23.4474C8.0631 23.6078 8 23.8013 8 24C8 24.1986 8.0631 24.3921 8.18019 24.5526C8.25269 24.6519 9.98744 27.0127 12.7847 29.4005C15.947 32.0999 19.8687 34.3125 24.0625 34.3125C28.2414 34.3125 32.1334 32.1155 35.2818 29.3971C38.0489 27.0079 39.7534 24.6454 39.8247 24.546C39.9387 24.3868 40 24.1959 40 24C40 23.8042 39.9387 23.6133 39.8246 23.4541ZM24.0625 32.45C18.7549 32.45 13.4502 28.0996 10.1274 24.0003C11.7161 22.0434 17.4761 15.55 24.0625 15.55C29.3722 15.55 34.6191 19.9064 37.8805 23.9997C36.3262 25.9476 30.6516 32.45 24.0625 32.45Z" fill="url(#paint0_linear_293_1609)"/>
<path d="M24.0625 17.4375C20.4306 17.4375 17.375 20.3752 17.375 24C17.375 27.6182 20.4228 30.5625 24.0625 30.5625C27.6811 30.5625 30.625 27.6186 30.625 24C30.625 20.3814 27.6811 17.4375 24.0625 17.4375ZM24.0625 28.7C21.4539 28.7 19.2375 26.5284 19.2375 23.9875C19.2375 21.4466 21.4539 19.3 24.0625 19.3C26.6472 19.3 28.7625 21.4028 28.7625 23.9875C28.7625 26.5722 26.6472 28.7 24.0625 28.7Z" fill="url(#paint1_linear_293_1609)"/>
<path d="M24.0625 21.1875C22.4702 21.1875 21.125 22.4754 21.125 24C21.125 25.5246 22.4702 26.8125 24.0625 26.8125C25.6133 26.8125 26.875 25.5508 26.875 24C26.875 22.4492 25.6133 21.1875 24.0625 21.1875ZM24.0625 24.95C23.5164 24.95 23 24.4819 23 24C23 23.5181 23.5164 23.0625 24.0625 23.0625C24.5794 23.0625 25 23.4831 25 24C25 24.5169 24.5794 24.95 24.0625 24.95Z" fill="url(#paint2_linear_293_1609)"/>
<defs>
<linearGradient id="paint0_linear_293_1609" x1="37.5522" y1="19.9201" x2="26.7974" y2="36.1645" gradientUnits="userSpaceOnUse">
<stop stop-color="#00D1FF"/>
<stop offset="1" stop-color="#51A2FF"/>
</linearGradient>
<linearGradient id="paint1_linear_293_1609" x1="29.6115" y1="21.4037" x2="22.1783" y2="28.7089" gradientUnits="userSpaceOnUse">
<stop stop-color="#00D1FF"/>
<stop offset="1" stop-color="#51A2FF"/>
</linearGradient>
<linearGradient id="paint2_linear_293_1609" x1="26.4352" y1="22.8873" x2="23.2491" y2="26.0579" gradientUnits="userSpaceOnUse">
<stop stop-color="#00D1FF"/>
<stop offset="1" stop-color="#51A2FF"/>
</linearGradient>
</defs>
</svg>
