<svg width="80" height="80" viewBox="0 0 80 80" fill="none" xmlns="http://www.w3.org/2000/svg">
<path fill-rule="evenodd" clip-rule="evenodd" d="M57.5134 32.3073C59.54 29.4673 63.3694 26.4139 68.58 23.8673C69.9374 23.2059 69.3267 21.1579 67.8307 21.3473C56.876 22.7339 49.7747 27.5313 45.8974 34.6646C44.4944 37.2751 43.5373 40.1015 43.0654 43.0273C42.748 44.9286 42.6654 46.3553 42.6654 48.0033C42.6654 51.5395 44.0701 54.9309 46.5706 57.4314C49.0711 59.9318 52.4625 61.3366 55.9987 61.3366C59.5349 61.3366 62.9263 59.9318 65.4268 57.4314C67.9273 54.9309 69.332 51.5395 69.332 48.0033C69.332 40.6406 63.2654 34.6646 56.2974 34.6646C56.6654 33.6566 56.7507 33.3713 57.5134 32.3073ZM28.18 32.3073C30.2067 29.4673 34.036 26.4139 39.2467 23.8673C40.604 23.2059 39.9934 21.1579 38.4974 21.3473C27.5427 22.7339 20.4414 27.5313 16.564 34.6646C15.1611 37.2751 14.2039 40.1015 13.732 43.0273C13.4147 44.9286 13.332 46.3553 13.332 48.0033C13.332 49.7542 13.6769 51.488 14.347 53.1057C15.017 54.7234 15.9992 56.1932 17.2373 57.4314C18.4754 58.6695 19.9452 59.6516 21.5629 60.3217C23.1806 60.9917 24.9144 61.3366 26.6654 61.3366C28.4163 61.3366 30.1501 60.9917 31.7678 60.3217C33.3855 59.6516 34.8553 58.6695 36.0935 57.4314C37.3316 56.1932 38.3137 54.7234 38.9838 53.1057C39.6538 51.488 39.9987 49.7542 39.9987 48.0033C39.9987 40.6406 33.932 34.6646 26.964 34.6646C27.332 33.6566 27.4174 33.3713 28.18 32.3073Z" fill="white"/>
</svg>
