<svg width="1600" height="1043" viewBox="0 0 1600 1043" fill="none" xmlns="http://www.w3.org/2000/svg">
<g opacity="0.43" filter="url(#filter0_f_293_1030)">
<path d="M1506.45 316.769C1592.65 315.703 1686.11 328.122 1723 350.827L1723 789.808L-122 811L-122 232C-62.2171 253.949 3.54912 274.083 70.7043 316.768C185.468 389.715 165.329 494.281 284.396 562.749C432.707 648.033 563.588 660.299 744.215 636.165C852.344 621.717 990.008 554.996 1043.73 527.236C1059.12 519.287 1073.28 509.667 1087.17 499.317C1149.64 452.743 1343.31 318.785 1506.45 316.769Z" fill="url(#paint0_linear_293_1030)"/>
</g>
<defs>
<filter id="filter0_f_293_1030" x="-354" y="0" width="2309" height="1043" filterUnits="userSpaceOnUse" color-interpolation-filters="sRGB">
<feFlood flood-opacity="0" result="BackgroundImageFix"/>
<feBlend mode="normal" in="SourceGraphic" in2="BackgroundImageFix" result="shape"/>
<feGaussianBlur stdDeviation="116" result="effect1_foregroundBlur_293_1030"/>
</filter>
<linearGradient id="paint0_linear_293_1030" x1="19.1287" y1="636.035" x2="210.665" y2="41.8621" gradientUnits="userSpaceOnUse">
<stop stop-color="#00D1FF"/>
<stop offset="1" stop-color="#51A2FF"/>
</linearGradient>
</defs>
</svg>
