<svg width="48" height="48" viewBox="0 0 48 48" fill="none" xmlns="http://www.w3.org/2000/svg">
<rect width="48" height="48" rx="6" fill="white" fill-opacity="0.06"/>
<path d="M38.1224 19.3293C37.5371 19.3293 37.0552 19.8115 37.0552 20.4067V28.095C37.0452 28.3805 37.1633 28.6461 37.3649 28.8528C37.5764 29.0496 37.8472 29.1626 38.1224 29.1626C38.7176 29.1626 39.1998 28.6755 39.1998 28.0902V20.4067C39.2003 20.2651 39.1727 20.1248 39.1187 19.9938C39.0648 19.8629 38.9854 19.744 38.8853 19.6438C38.7851 19.5437 38.6662 19.4643 38.5352 19.4103C38.4043 19.3564 38.264 19.3288 38.1224 19.3293ZM34.0888 14.2874C33.8052 14.2883 33.5335 14.4017 33.3335 14.6027C33.1334 14.8036 33.0212 15.0758 33.0216 15.3594V32.6355C33.0216 33.2256 33.5035 33.7078 34.0888 33.7078C34.2294 33.7078 34.3686 33.6801 34.4984 33.6261C34.6282 33.5722 34.7461 33.4931 34.8453 33.3935C34.9445 33.2938 35.023 33.1756 35.0764 33.0455C35.1298 32.9154 35.1569 32.7761 35.1563 32.6355V15.3597C35.1573 15.219 35.1305 15.0794 35.0773 14.9492C35.0241 14.8189 34.9455 14.7005 34.8463 14.6008C34.747 14.5011 34.6289 14.422 34.4989 14.3682C34.3689 14.3144 34.2295 14.2869 34.0888 14.2874ZM30.0504 9.24512C29.4648 9.24512 28.9828 9.72736 28.9828 10.3174V37.6826C28.9828 38.2726 29.4648 38.7546 30.0504 38.7546C30.1909 38.7546 30.3301 38.7268 30.4599 38.6729C30.5897 38.6189 30.7076 38.5399 30.8068 38.4403C30.906 38.3407 30.9845 38.2225 31.0379 38.0925C31.0913 37.9624 31.1185 37.8231 31.1179 37.6826V10.3174C31.1189 10.1768 31.092 10.0373 31.0388 9.90704C30.9855 9.77681 30.907 9.65843 30.8078 9.55874C30.7085 9.45905 30.5904 9.38004 30.4604 9.32626C30.3304 9.27248 30.191 9.24469 30.0504 9.24512ZM26.0168 12.5165C25.4216 12.5165 24.9492 13.0035 24.9492 13.5936V34.3968C24.9492 34.9869 25.4216 35.4739 26.0168 35.4739C26.612 35.4739 27.0939 34.9869 27.0939 34.3965V13.5936C27.0931 13.3082 26.9794 13.0346 26.7776 12.8328C26.5757 12.631 26.3022 12.5172 26.0168 12.5165ZM21.9828 16.9978C21.3976 16.9978 20.9156 17.4797 20.9156 18.0698V29.9251C20.9171 30.2077 21.03 30.4784 21.2298 30.6783C21.4296 30.8782 21.7002 30.9911 21.9828 30.9926C22.578 30.9926 23.0603 30.5104 23.0603 29.9251V18.0701C23.0594 17.7851 22.9454 17.5121 22.7434 17.3111C22.5414 17.11 22.2678 16.9973 21.9828 16.9978ZM17.9492 10.2486C17.3636 10.2486 16.8817 10.7309 16.8817 11.321V36.6691C16.8817 37.2595 17.364 37.7414 17.9492 37.7414C18.5348 37.7414 19.0267 37.2595 19.0267 36.6691V11.321C19.0267 11.0358 18.9134 10.7702 18.7118 10.5683C18.5098 10.3653 18.2357 10.2503 17.9492 10.2486ZM13.9204 15.2909C13.3252 15.2909 12.8334 15.7728 12.8334 16.368V31.6224C12.8334 32.2176 13.3252 32.6995 13.9204 32.6995C14.4961 32.6995 14.988 32.2173 14.988 31.6221V16.368C14.988 15.7728 14.4961 15.2909 13.9204 15.2909ZM9.87724 19.3293C9.5917 19.33 9.31804 19.4437 9.11613 19.6456C8.91421 19.8475 8.80048 20.1212 8.7998 20.4067V27.5885C8.7998 28.1789 9.29164 28.6656 9.87724 28.6656C10.1627 28.6648 10.4362 28.5511 10.638 28.3493C10.8399 28.1474 10.9536 27.8739 10.9544 27.5885V20.4067C10.9544 20.1165 10.8411 19.8509 10.6395 19.649C10.4379 19.447 10.1672 19.3293 9.87724 19.3293Z" fill="white"/>
</svg>
