<svg width="48" height="48" viewBox="0 0 48 48" fill="none" xmlns="http://www.w3.org/2000/svg">
<rect width="48" height="48" rx="6" fill="white" fill-opacity="0.06"/>
<g clip-path="url(#clip0_293_1688)">
<path d="M29.7012 26.8258L25.2395 23.4796V16.6632C25.2395 15.9778 24.6855 15.4238 24.0001 15.4238C23.3147 15.4238 22.7607 15.9778 22.7607 16.6632V24.0993C22.7607 24.4897 22.9442 24.8578 23.2565 25.0908L28.2139 28.8089C28.4278 28.97 28.6884 29.057 28.9562 29.0568C29.3342 29.0568 29.7061 28.887 29.949 28.5598C30.3606 28.0131 30.249 27.2361 29.7012 26.8258Z" fill="white"/>
<path d="M24 8C15.1771 8 8 15.1771 8 24C8 32.8229 15.1771 40 24 40C32.8229 40 40 32.8229 40 24C40 15.1771 32.8229 8 24 8ZM24 37.5213C16.5453 37.5213 10.4787 31.4547 10.4787 24C10.4787 16.5453 16.5453 10.4787 24 10.4787C31.4559 10.4787 37.5213 16.5453 37.5213 24C37.5213 31.4547 31.4547 37.5213 24 37.5213Z" fill="white"/>
</g>
<defs>
<clipPath id="clip0_293_1688">
<rect width="32" height="32" fill="white" transform="translate(8 8)"/>
</clipPath>
</defs>
</svg>
