<svg width="48" height="48" viewBox="0 0 48 48" fill="none" xmlns="http://www.w3.org/2000/svg">
<rect width="48" height="48" rx="6" fill="white" fill-opacity="0.06"/>
<path d="M32.9206 10.9702H29.2715C29.1745 10.1352 28.4631 9.48512 27.6025 9.48512H26.572C26.2876 9.03035 25.8922 8.65541 25.423 8.3956C24.9538 8.13579 24.4262 7.99965 23.8898 8C23.3534 7.99984 22.8257 8.13605 22.3564 8.39584C21.887 8.65562 21.4914 9.03046 21.2067 9.48512H20.177C19.3164 9.48512 18.605 10.1352 18.508 10.9702H14.8621C12.7324 10.9702 11 12.7029 11 14.8322V36.1381C11 38.2674 12.7324 39.9999 14.8621 39.9999H32.9206C35.05 39.9999 36.7826 38.2675 36.7826 36.1381V14.8323C36.7826 12.7027 35.0503 10.9702 32.9206 10.9702ZM20.3719 11.3601H21.6431C21.8684 11.3603 22.0889 11.2942 22.2769 11.1701C22.465 11.046 22.6125 10.8694 22.7009 10.6621C22.9055 10.1837 23.3723 9.875 23.8898 9.875C24.1429 9.87497 24.3904 9.94942 24.6014 10.0891C24.8125 10.2287 24.9778 10.4274 25.0767 10.6604C25.1649 10.8681 25.3124 11.0452 25.5006 11.1696C25.6888 11.294 25.9096 11.3603 26.1352 11.3601H27.4077V13.9404H20.3717L20.3719 11.3601ZM34.9076 36.1379C34.9076 37.2336 34.0163 38.1249 32.9206 38.1249H14.8621C13.7664 38.1249 12.875 37.2336 12.875 36.1379V14.8323C12.875 13.7366 13.7664 12.8452 14.8621 12.8452H18.4968V14.1355C18.4968 15.0617 19.2505 15.8154 20.177 15.8154H27.6025C28.529 15.8154 29.2827 15.0617 29.2827 14.1355V12.8452H32.9206C34.0163 12.8452 34.9076 13.7366 34.9076 14.8322V36.1379Z" fill="white"/>
<path d="M21.9468 21.2314H31.8658C32.3836 21.2314 32.8033 20.8115 32.8033 20.2939C32.8033 19.7761 32.3836 19.3564 31.8658 19.3564H21.9468C21.429 19.3564 21.0093 19.7761 21.0093 20.2939C21.0093 20.8115 21.429 21.2314 21.9468 21.2314ZM16.0686 22.0485C16.2625 22.2424 16.5171 22.3391 16.7715 22.3391C17.026 22.3391 17.2805 22.2424 17.4744 22.0485L19.6744 19.8484C20.0405 19.4824 20.0405 18.8887 19.6744 18.5227C19.3084 18.1565 18.7146 18.1565 18.3486 18.5227L16.7715 20.0996L16.483 19.811C16.1167 19.445 15.5232 19.445 15.157 19.811C14.791 20.1772 14.791 20.7707 15.157 21.1369L16.0686 22.0485ZM21.9256 27.8892H31.8448C32.3623 27.8892 32.7823 27.4692 32.7823 26.9517C32.7823 26.4338 32.3623 26.0142 31.8448 26.0142H21.9256C21.408 26.0142 20.9881 26.4338 20.9881 26.9517C20.9881 27.4692 21.408 27.8892 21.9256 27.8892ZM16.0476 28.7062C16.1397 28.7988 16.2493 28.8722 16.3699 28.9222C16.4906 28.9722 16.6199 28.9977 16.7505 28.9973H16.7513C17.0169 28.997 17.2666 28.8935 17.4531 28.7063L19.6533 26.5061C20.0196 26.1401 20.0196 25.5464 19.6533 25.1804C19.2874 24.8142 18.6936 24.8142 18.3277 25.1804L16.7505 26.7573L16.4617 26.4687C16.0957 26.1028 15.5022 26.1028 15.136 26.4687C14.7698 26.835 14.7698 27.4284 15.136 27.7947L16.0476 28.7062ZM31.9839 32.6057H22.065C21.5472 32.6057 21.1275 33.0254 21.1275 33.5432C21.1275 34.061 21.5472 34.4807 22.065 34.4807H31.984C32.5018 34.4807 32.9215 34.061 32.9215 33.5432C32.9215 33.0253 32.5018 32.6057 31.984 32.6057H31.9839ZM18.4668 31.772L16.8896 33.3491L16.6009 33.0605C16.2346 32.6943 15.6414 32.6943 15.2751 33.0605C14.909 33.4265 14.909 34.0202 15.2751 34.3865L16.1868 35.2979C16.279 35.3902 16.3886 35.4635 16.5092 35.5134C16.6298 35.5633 16.7591 35.5888 16.8896 35.5886C17.144 35.5886 17.3987 35.4917 17.5923 35.2979L19.7925 33.0979C20.1588 32.7317 20.1588 32.1382 19.7925 31.772C19.4265 31.4057 18.8328 31.4057 18.4668 31.772Z" fill="white"/>
</svg>
