<svg width="48" height="48" viewBox="0 0 48 48" fill="none" xmlns="http://www.w3.org/2000/svg">
<rect width="48" height="48" rx="6" fill="white" fill-opacity="0.06"/>
<path fill-rule="evenodd" clip-rule="evenodd" d="M16.667 10.6667C16.667 10.4899 16.7372 10.3203 16.8623 10.1953C16.9873 10.0702 17.1568 10 17.3337 10H30.667C30.8438 10 31.0134 10.0702 31.1384 10.1953C31.2634 10.3203 31.3337 10.4899 31.3337 10.6667V22.6667C31.3337 24.258 30.7015 25.7841 29.5763 26.9093C28.4511 28.0345 26.925 28.6667 25.3337 28.6667H22.667C21.0757 28.6667 19.5496 28.0345 18.4244 26.9093C17.2991 25.7841 16.667 24.258 16.667 22.6667V10.6667ZM18.0003 11.3333V22.6667C18.0003 23.9043 18.492 25.0913 19.3672 25.9665C20.2423 26.8417 21.4293 27.3333 22.667 27.3333H25.3337C25.9465 27.3333 26.5533 27.2126 27.1195 26.9781C27.6857 26.7436 28.2002 26.3998 28.6335 25.9665C29.0668 25.5332 29.4106 25.0187 29.6451 24.4525C29.8796 23.8863 30.0003 23.2795 30.0003 22.6667V11.3333H18.0003Z" fill="white"/>
<path fill-rule="evenodd" clip-rule="evenodd" d="M20.667 28.0002C20.667 27.8234 20.7372 27.6538 20.8623 27.5288C20.9873 27.4037 21.1568 27.3335 21.3337 27.3335H26.667C26.8438 27.3335 27.0134 27.4037 27.1384 27.5288C27.2634 27.6538 27.3337 27.8234 27.3337 28.0002V33.3335C27.3337 33.5103 27.2634 33.6799 27.1384 33.8049C27.0134 33.9299 26.8438 34.0002 26.667 34.0002H21.3337C21.1568 34.0002 20.9873 33.9299 20.8623 33.8049C20.7372 33.6799 20.667 33.5103 20.667 33.3335V28.0002ZM22.0003 28.6668V32.6668H26.0003V28.6668H22.0003Z" fill="white"/>
<path fill-rule="evenodd" clip-rule="evenodd" d="M16.6668 33.3332C16.6668 33.1564 16.737 32.9868 16.8621 32.8618C16.9871 32.7367 17.1567 32.6665 17.3335 32.6665H30.6668C30.8436 32.6665 31.0132 32.7367 31.1382 32.8618C31.2632 32.9868 31.3335 33.1564 31.3335 33.3332V37.3332C31.3335 37.51 31.2632 37.6796 31.1382 37.8046C31.0132 37.9296 30.8436 37.9998 30.6668 37.9998H17.3335C17.1567 37.9998 16.9871 37.9296 16.8621 37.8046C16.737 37.6796 16.6668 37.51 16.6668 37.3332V33.3332ZM18.0001 33.9998V36.6665H30.0001V33.9998H18.0001ZM30.0001 13.3332C30.0001 13.1564 30.0704 12.9868 30.1954 12.8618C30.3204 12.7367 30.49 12.6665 30.6668 12.6665H32.9255C33.4031 12.6665 33.8752 12.7691 34.3097 12.9674C34.7442 13.1657 35.1311 13.4551 35.444 13.816C35.7569 14.1768 35.9887 14.6007 36.1235 15.0589C36.2583 15.5172 36.2931 15.999 36.2255 16.4718L35.6535 20.4718C35.5399 21.2661 35.1436 21.9927 34.5374 22.5183C33.9312 23.0439 33.1558 23.3332 32.3535 23.3332H30.6668C30.49 23.3332 30.3204 23.2629 30.1954 23.1379C30.0704 23.0129 30.0001 22.8433 30.0001 22.6665V13.3332ZM31.3335 13.9998V21.9998H32.3535C32.8349 21.9999 33.3003 21.8262 33.664 21.5107C34.0277 21.1952 34.2654 20.7591 34.3335 20.2825L34.9055 16.2825C34.946 15.9988 34.925 15.7098 34.8441 15.4349C34.7632 15.1601 34.6241 14.9058 34.4364 14.6893C34.2486 14.4729 34.0165 14.2993 33.7559 14.1803C33.4952 14.0614 33.212 13.9998 32.9255 13.9998H31.3335ZM18.0001 13.3332C18.0001 13.1564 17.9299 12.9868 17.8049 12.8618C17.6798 12.7367 17.5103 12.6665 17.3335 12.6665H15.0748C14.5972 12.6665 14.1251 12.7691 13.6905 12.9674C13.256 13.1657 12.8692 13.4551 12.5563 13.816C12.2433 14.1768 12.0116 14.6007 11.8768 15.0589C11.7419 15.5172 11.7072 15.999 11.7748 16.4718L12.3468 20.4718C12.4604 21.2661 12.8567 21.9927 13.4629 22.5183C14.069 23.0439 14.8445 23.3332 15.6468 23.3332H17.3335C17.5103 23.3332 17.6798 23.2629 17.8049 23.1379C17.9299 23.0129 18.0001 22.8433 18.0001 22.6665V13.3332ZM16.6668 13.9998V21.9998H15.6468C15.1653 21.9999 14.7 21.8262 14.3363 21.5107C13.9726 21.1952 13.7348 20.7591 13.6668 20.2825L13.0948 16.2825C13.0543 15.9988 13.0752 15.7098 13.1562 15.4349C13.2371 15.1601 13.3761 14.9058 13.5639 14.6893C13.7516 14.4729 13.9837 14.2993 14.2444 14.1803C14.5051 14.0614 14.7883 13.9998 15.0748 13.9998H16.6668Z" fill="white"/>
</svg>
