<svg width="48" height="48" viewBox="0 0 48 48" fill="none" xmlns="http://www.w3.org/2000/svg">
<rect width="48" height="48" rx="6" fill="white" fill-opacity="0.06"/>
<path d="M33.2666 27.713C32.6386 26.4037 30.3919 24.5863 28.2213 22.8303C27.0106 21.8516 25.8666 20.9263 25.1373 20.197C24.9546 20.013 24.6813 19.9543 24.44 20.041C23.9906 20.2037 23.7133 20.329 23.4946 20.4263C23.1613 20.5756 23.0493 20.6263 22.6 20.6716C22.5021 20.6813 22.4076 20.7125 22.3232 20.763C22.2389 20.8134 22.1667 20.882 22.112 20.9636C21.1693 22.3729 20.1933 22.2529 19.5413 22.0343C19.3333 21.965 19.296 21.8756 19.276 21.7903C19.136 21.205 19.8386 19.8423 20.7493 18.9316C22.916 16.7636 24.0333 16.2209 26.3933 17.2756C29.0706 18.4729 31.7533 19.4103 31.78 19.4196C31.8627 19.4486 31.9503 19.4609 32.0378 19.456C32.1253 19.451 32.211 19.4288 32.2899 19.3906C32.3688 19.3525 32.4394 19.2991 32.4976 19.2336C32.5559 19.1681 32.6006 19.0918 32.6293 19.0089C32.7493 18.6609 32.5666 18.2809 32.2186 18.1596C32.1919 18.1503 29.5626 17.2316 26.9386 16.0569C23.8813 14.6902 22.2039 15.5902 19.8079 17.9876C18.8959 18.8996 17.6572 20.7449 17.9772 22.0983C18.1145 22.6743 18.5199 23.101 19.1225 23.2996C20.6332 23.7983 22.0118 23.3209 23.0385 21.9583C23.4625 21.893 23.6932 21.797 24.0398 21.641C24.1941 21.5713 24.3497 21.5046 24.5065 21.441C25.2692 22.157 26.2985 22.9903 27.3825 23.8663C29.3425 25.4516 31.5652 27.249 32.0652 28.289C32.3119 28.8023 32.0465 29.137 31.8665 29.2903C31.6025 29.517 31.2412 29.589 31.0452 29.4516C30.8292 29.3036 30.5479 29.2943 30.3252 29.4276C30.2156 29.4929 30.1271 29.5883 30.0701 29.7025C30.0132 29.8167 29.9902 29.9448 30.0039 30.0716C30.0492 30.4956 29.6612 30.7383 29.4932 30.8223C29.0665 31.0383 28.6212 31.001 28.4545 30.8463C28.2678 30.673 27.9998 30.6223 27.7625 30.7103C27.5252 30.7996 27.3598 31.0183 27.3358 31.2716C27.2958 31.7089 26.9718 32.1289 26.5491 32.2929C26.3451 32.3702 26.0491 32.4169 25.7838 32.1742C25.7025 32.1009 25.6045 32.0485 25.4983 32.0216C25.3921 31.9946 25.281 31.9939 25.1745 32.0196C25.0679 32.0456 24.9694 32.0975 24.8878 32.1708C24.8061 32.2441 24.7439 32.3364 24.7065 32.4396C24.6812 32.5062 24.6238 32.6662 23.9998 32.6662C23.5558 32.6662 22.7571 32.3662 22.3665 32.1076C21.8985 31.7996 18.9638 29.6102 16.4292 27.4876C16.0732 27.1876 15.4572 26.5449 14.9132 25.9769C14.4305 25.4729 13.9892 25.0156 13.7625 24.8236C13.4785 24.5836 13.0585 24.6196 12.8225 24.9022C12.5852 25.1836 12.6198 25.6049 12.9012 25.8422C13.1079 26.0169 13.5079 26.4396 13.9492 26.8996C14.5439 27.5209 15.1585 28.1636 15.5719 28.5102C18.0546 30.5889 21.0386 32.8329 21.6332 33.2236C22.1239 33.5462 23.1812 33.9996 23.9999 33.9996C24.6572 33.9996 25.1626 33.8489 25.5132 33.5542C25.9825 33.7369 26.5159 33.7382 27.0292 33.5382C27.6359 33.3036 28.1345 32.8302 28.4172 32.2569C28.9425 32.3689 29.5439 32.2902 30.0905 32.0156C30.6252 31.7463 31.0118 31.3343 31.2038 30.8529C31.7345 30.8809 32.2811 30.6929 32.7331 30.3049C33.4986 29.6503 33.7092 28.6317 33.2666 27.713Z" fill="white"/>
<path d="M21.3337 16.6665H15.3337C14.9657 16.6665 14.667 16.9652 14.667 17.3332C14.667 17.7012 14.9657 17.9999 15.3337 17.9999H21.3337C21.7017 17.9999 22.0004 17.7012 22.0004 17.3332C22.0004 16.9652 21.7017 16.6665 21.3337 16.6665ZM35.2204 26.2945C35.0137 25.9892 34.6004 25.9052 34.2951 26.1132L32.3457 27.4225C32.0404 27.6278 31.9591 28.0425 32.1644 28.3478C32.2258 28.4385 32.3084 28.5128 32.4051 28.5642C32.5018 28.6156 32.6096 28.6425 32.7191 28.6425C32.8458 28.6425 32.9751 28.6065 33.0898 28.5292L35.0391 27.2199C35.3444 27.0145 35.4257 26.5999 35.2204 26.2945ZM31.0817 29.4759C30.6044 29.0999 28.4697 26.9146 27.1497 25.5386C26.895 25.2719 26.4724 25.2626 26.207 25.5186C25.9403 25.7733 25.9323 26.1959 26.187 26.4613C26.5297 26.8186 29.5523 29.9693 30.255 30.5239C30.3723 30.6165 30.5175 30.6668 30.667 30.6666C30.863 30.6666 31.059 30.5786 31.1923 30.4119C31.4204 30.1239 31.3711 29.7039 31.0817 29.4759ZM28.4177 30.8132C27.619 30.1745 25.6124 28.0425 25.159 27.5492C24.9083 27.2772 24.4883 27.2612 24.2163 27.5092C23.9456 27.7585 23.927 28.1812 24.1763 28.4519C24.2003 28.4772 26.595 31.0626 27.5843 31.8546C27.7026 31.9485 27.8492 31.9997 28.0003 31.9999C28.195 31.9999 28.3896 31.9132 28.5216 31.7506C28.7511 31.4625 28.7044 31.0425 28.4177 30.8132ZM25.7644 32.1559C24.8137 31.3546 22.8684 29.2839 22.4884 28.8772C22.2364 28.6079 21.8137 28.5932 21.5457 28.8452C21.2764 29.0972 21.263 29.5185 21.5137 29.7879C22.0604 30.3732 23.9217 32.3466 24.9044 33.1759C25.0244 33.2774 25.1765 33.3332 25.3337 33.3332C25.523 33.3332 25.7124 33.2519 25.8444 33.0959C26.0817 32.8132 26.0457 32.3932 25.7644 32.1559Z" fill="white"/>
<path d="M15.792 15.5156C14.6493 14.4329 10.08 14.0822 8.70669 14.0009C8.51738 13.9916 8.34269 14.0542 8.20938 14.1809C8.14322 14.2432 8.09052 14.3185 8.05451 14.4019C8.01851 14.4854 7.99995 14.5753 8 14.6662V26.6662C8 27.0342 8.29869 27.3329 8.66669 27.3329H12.6667C12.9547 27.3329 13.2107 27.1476 13.3 26.8729C13.3973 26.5742 15.6947 19.5236 15.9973 16.0569C16.0147 15.8542 15.94 15.6542 15.792 15.5156ZM12.18 25.9996H9.33331V15.3809C11.476 15.5502 13.788 15.9182 14.628 16.3262C14.2747 19.2462 12.676 24.4342 12.18 25.9996ZM39.3333 15.3329C34.0986 15.3329 31.1946 16.6729 31.0733 16.7289C30.9 16.8102 30.7706 16.9609 30.7173 17.1436C30.664 17.3263 30.6906 17.5223 30.7906 17.6849C31.6146 19.0116 34.1946 26.3796 34.6906 28.1769C34.7294 28.3176 34.8133 28.4416 34.9294 28.53C35.0455 28.6184 35.1874 28.6662 35.3333 28.6662H39.3333C39.7013 28.6662 40 28.3675 40 27.9995V15.9995C40.0001 15.912 39.9829 15.8252 39.9494 15.7443C39.9159 15.6634 39.8668 15.5899 39.8049 15.528C39.743 15.4661 39.6694 15.417 39.5885 15.3835C39.5076 15.35 39.4209 15.3328 39.3333 15.3329ZM38.6667 27.3329H35.832C35.2 25.2742 33.3333 19.9062 32.292 17.6876C33.3093 17.3423 35.4947 16.7489 38.6667 16.6743V27.3329Z" fill="white"/>
</svg>
