<svg width="48" height="48" viewBox="0 0 48 48" fill="none" xmlns="http://www.w3.org/2000/svg">
<rect width="48" height="48" rx="6" fill="white" fill-opacity="0.06"/>
<path d="M24 9.93604L12 14.3V24C12 34.96 23.645 37.942 23.762 37.972L24 38.029L24.238 37.972C24.355 37.942 36 34.96 36 24V14.3L24 9.93604ZM34 24C34 32.679 25.59 35.507 24.004 35.963C22.474 35.51 14 32.604 14 24V15.7L24 12.064L34 15.7V24Z" fill="white"/>
<path d="M18.707 23.293L17.293 24.707L22 29.414L30.707 20.707L29.293 19.293L22 26.586L18.707 23.293Z" fill="white"/>
</svg>
